<svg version="1.1" xmlns="http://www.w3.org/2000/svg" viewBox="0 0 402.203125 773.0417452551029" width="804.40625" height="1546.0834905102058">
  <!-- svg-source:excalidraw -->
  
  <defs>
    <style class="style-fonts">
      @font-face {
        font-family: "Virgil";
        src: url("https://excalidraw.com/Virgil.woff2");
      }
      @font-face {
        font-family: "Cascadia";
        src: url("https://excalidraw.com/Cascadia.woff2");
      }
      @font-face {
        font-family: "Assistant";
        src: url("https://excalidraw.com/Assistant-Regular.woff2");
      }
    </style>
    
  </defs>
  <rect x="0" y="0" width="402.203125" height="773.0417452551029" fill="#ffffff"></rect><g stroke-linecap="round" transform="translate(60.624690315074076 269.50882791716845) rotate(0 130.890625 31.32421875)"><path d="M15.66 0 C91.93 -2.34, 167.48 -0.17, 246.12 0 M15.66 0 C98.83 -0.19, 184.08 -0.64, 246.12 0 M246.12 0 C256.63 -0.12, 261.28 6.07, 261.78 15.66 M246.12 0 C257.26 1.88, 260.62 4.86, 261.78 15.66 M261.78 15.66 C260 26.53, 262.5 34.62, 261.78 46.99 M261.78 15.66 C261.27 26.37, 262.61 37.82, 261.78 46.99 M261.78 46.99 C260.68 58.44, 257.91 60.84, 246.12 62.65 M261.78 46.99 C263.44 57.56, 256.99 62.77, 246.12 62.65 M246.12 62.65 C154.59 64.73, 62.76 63.32, 15.66 62.65 M246.12 62.65 C182.75 63.01, 118.02 63.63, 15.66 62.65 M15.66 62.65 C4.9 63.77, 1.95 58.73, 0 46.99 M15.66 62.65 C5.73 62.3, -2.12 57.77, 0 46.99 M0 46.99 C-0.62 37.38, -0.82 30.94, 0 15.66 M0 46.99 C-0.03 36.61, 0.65 27.92, 0 15.66 M0 15.66 C-1.82 5.74, 3.41 1.09, 15.66 0 M0 15.66 C-0.37 3.86, 7.1 1.35, 15.66 0" stroke="#1e1e1e" stroke-width="2" fill="none"></path></g><g transform="translate(144.34536292249595 288.33304666716845) rotate(0 47.169952392578125 12.5)"><text x="47.169952392578125" y="17.52" font-family="Virgil, Segoe UI Emoji" font-size="20px" fill="#1e1e1e" text-anchor="middle" style="white-space: pre;" direction="ltr" dominant-baseline="alphabetic">Controller</text></g><g transform="translate(156.4450028150742 77.25984333433689) rotate(0 28.5 12.5)"><text x="0" y="17.52" font-family="Virgil, Segoe UI Emoji" font-size="20px" fill="#000000" text-anchor="start" style="white-space: pre;" direction="ltr" dominant-baseline="alphabetic">Users</text></g><g stroke-linecap="round" transform="translate(196.88781975429345 10) rotate(0 9.875171816384807 8.64077533933672)"><path d="M2.19 3.23 C2.19 3.23, 2.19 3.23, 2.19 3.23 M2.19 3.23 C2.19 3.23, 2.19 3.23, 2.19 3.23 M2.98 14.51 C6.3 10.69, 9.62 6.87, 14.79 0.93 M2.98 14.51 C5.99 11.05, 9.01 7.58, 14.79 0.93 M10.33 18.25 C12.21 16.08, 14.1 13.91, 19.51 7.69 M10.33 18.25 C13.82 14.24, 17.31 10.22, 19.51 7.69 M3.77 15.47 C3.77 15.47, 3.77 15.47, 3.77 15.47 M3.77 15.47 C3.77 15.47, 3.77 15.47, 3.77 15.47 M15.81 15.34 C11.27 11.39, 6.73 7.45, 2.23 3.53 M15.81 15.34 C12.26 12.25, 8.7 9.15, 2.23 3.53 M20.31 8.65 C16.71 5.52, 13.11 2.39, 9.74 -0.54 M20.31 8.65 C17.09 5.85, 13.87 3.05, 9.74 -0.54" stroke="#ced4da" stroke-width="1" fill="none"></path><path d="M19.75 8.64 C19.75 9.14, 19.7 9.65, 19.6 10.14 C19.5 10.63, 19.35 11.13, 19.15 11.6 C18.96 12.07, 18.71 12.53, 18.43 12.96 C18.14 13.39, 17.81 13.81, 17.44 14.19 C17.07 14.58, 16.66 14.94, 16.22 15.26 C15.78 15.58, 15.31 15.87, 14.81 16.12 C14.32 16.37, 13.79 16.59, 13.25 16.76 C12.72 16.93, 12.15 17.06, 11.59 17.15 C11.03 17.24, 10.45 17.28, 9.88 17.28 C9.3 17.28, 8.72 17.24, 8.16 17.15 C7.6 17.06, 7.03 16.93, 6.5 16.76 C5.96 16.59, 5.43 16.37, 4.94 16.12 C4.44 15.87, 3.97 15.58, 3.53 15.26 C3.09 14.94, 2.68 14.58, 2.31 14.19 C1.94 13.81, 1.61 13.39, 1.32 12.96 C1.04 12.53, 0.79 12.07, 0.6 11.6 C0.4 11.13, 0.25 10.63, 0.15 10.14 C0.05 9.65, 0 9.14, 0 8.64 C0 8.14, 0.05 7.63, 0.15 7.14 C0.25 6.65, 0.4 6.16, 0.6 5.69 C0.79 5.22, 1.04 4.75, 1.32 4.32 C1.61 3.89, 1.94 3.47, 2.31 3.09 C2.68 2.7, 3.09 2.34, 3.53 2.02 C3.97 1.7, 4.44 1.41, 4.94 1.16 C5.43 0.91, 5.96 0.69, 6.5 0.52 C7.03 0.35, 7.6 0.22, 8.16 0.13 C8.72 0.04, 9.3 0, 9.88 0 C10.45 0, 11.03 0.04, 11.59 0.13 C12.15 0.22, 12.72 0.35, 13.25 0.52 C13.79 0.69, 14.32 0.91, 14.81 1.16 C15.31 1.41, 15.78 1.7, 16.22 2.02 C16.66 2.34, 17.07 2.7, 17.44 3.09 C17.81 3.47, 18.14 3.89, 18.43 4.32 C18.71 4.75, 18.96 5.22, 19.15 5.69 C19.35 6.16, 19.5 6.65, 19.6 7.14 C19.7 7.63, 19.73 8.39, 19.75 8.64 C19.78 8.89, 19.78 8.39, 19.75 8.64" stroke="#000000" stroke-width="2" fill="none"></path></g><g stroke-linecap="round" transform="translate(153.70414562997155 10.583067783634078) rotate(0 9.875171816384807 8.64077533933672)"><path d="M2.19 3.23 C2.19 3.23, 2.19 3.23, 2.19 3.23 M2.19 3.23 C2.19 3.23, 2.19 3.23, 2.19 3.23 M2.98 14.51 C5.69 11.39, 8.41 8.26, 14.79 0.93 M2.98 14.51 C5.57 11.53, 8.16 8.55, 14.79 0.93 M10.33 18.25 C13.34 14.79, 16.35 11.33, 19.51 7.69 M10.33 18.25 C12.27 16.02, 14.21 13.78, 19.51 7.69 M3.77 15.47 C3.77 15.47, 3.77 15.47, 3.77 15.47 M3.77 15.47 C3.77 15.47, 3.77 15.47, 3.77 15.47 M15.81 15.34 C12.49 12.45, 9.16 9.56, 2.23 3.53 M15.81 15.34 C11.36 11.47, 6.91 7.6, 2.23 3.53 M20.31 8.65 C17.93 6.58, 15.56 4.52, 9.74 -0.54 M20.31 8.65 C16.21 5.08, 12.11 1.52, 9.74 -0.54" stroke="#ced4da" stroke-width="1" fill="none"></path><path d="M19.75 8.64 C19.75 9.14, 19.7 9.65, 19.6 10.14 C19.5 10.63, 19.35 11.13, 19.15 11.6 C18.96 12.07, 18.71 12.53, 18.43 12.96 C18.14 13.39, 17.81 13.81, 17.44 14.19 C17.07 14.58, 16.66 14.94, 16.22 15.26 C15.78 15.58, 15.31 15.87, 14.81 16.12 C14.32 16.37, 13.79 16.59, 13.25 16.76 C12.72 16.93, 12.15 17.06, 11.59 17.15 C11.03 17.24, 10.45 17.28, 9.88 17.28 C9.3 17.28, 8.72 17.24, 8.16 17.15 C7.6 17.06, 7.03 16.93, 6.5 16.76 C5.96 16.59, 5.43 16.37, 4.94 16.12 C4.44 15.87, 3.97 15.58, 3.53 15.26 C3.09 14.94, 2.68 14.58, 2.31 14.19 C1.94 13.81, 1.61 13.39, 1.32 12.96 C1.04 12.53, 0.79 12.07, 0.6 11.6 C0.4 11.13, 0.25 10.63, 0.15 10.14 C0.05 9.65, 0 9.14, 0 8.64 C0 8.14, 0.05 7.63, 0.15 7.14 C0.25 6.65, 0.4 6.16, 0.6 5.69 C0.79 5.22, 1.04 4.75, 1.32 4.32 C1.61 3.89, 1.94 3.47, 2.31 3.09 C2.68 2.7, 3.09 2.34, 3.53 2.02 C3.97 1.7, 4.44 1.41, 4.94 1.16 C5.43 0.91, 5.96 0.69, 6.5 0.52 C7.03 0.35, 7.6 0.22, 8.16 0.13 C8.72 0.04, 9.3 0, 9.88 0 C10.45 0, 11.03 0.04, 11.59 0.13 C12.15 0.22, 12.72 0.35, 13.25 0.52 C13.79 0.69, 14.32 0.91, 14.81 1.16 C15.31 1.41, 15.78 1.7, 16.22 2.02 C16.66 2.34, 17.07 2.7, 17.44 3.09 C17.81 3.47, 18.14 3.89, 18.43 4.32 C18.71 4.75, 18.96 5.22, 19.15 5.69 C19.35 6.16, 19.5 6.65, 19.6 7.14 C19.7 7.63, 19.73 8.39, 19.75 8.64 C19.78 8.89, 19.78 8.39, 19.75 8.64" stroke="#000000" stroke-width="2" fill="none"></path></g><g stroke-linecap="round"><g transform="translate(164.1559656372359 69.51410352128369) rotate(0 20.903001066267336 -18.61352214878211)" fill-rule="evenodd"><path d="M11.93 -33.36 C11.93 -33.36, 11.93 -33.36, 11.93 -33.36 M11.93 -33.36 C11.93 -33.36, 11.93 -33.36, 11.93 -33.36 M1.56 -9.24 C9.3 -18.15, 17.05 -27.06, 25.18 -36.41 M1.56 -9.24 C6.55 -14.99, 11.55 -20.73, 25.18 -36.41 M4.32 -0.22 C11.15 -8.08, 17.99 -15.95, 31.22 -31.16 M4.32 -0.22 C10.9 -7.79, 17.48 -15.36, 31.22 -31.16 M14.95 -0.26 C20.25 -6.36, 25.55 -12.46, 36.6 -25.16 M14.95 -0.26 C22.04 -8.42, 29.14 -16.58, 36.6 -25.16 M25.58 -0.29 C28.97 -4.19, 32.36 -8.09, 40.67 -17.65 M25.58 -0.29 C31.44 -7.03, 37.29 -13.77, 40.67 -17.65 M36.21 -0.32 C38.3 -2.73, 40.4 -5.14, 44.08 -9.38 M36.21 -0.32 C38.28 -2.71, 40.36 -5.1, 44.08 -9.38 M0 0 C0 0, 0 0, 0 0 M0 0 C0 0, 0 0, 0 0 M12.04 -0.13 C9.73 -2.14, 7.41 -4.16, 1.47 -9.32 M12.04 -0.13 C9.9 -1.99, 7.76 -3.85, 1.47 -9.32 M24.08 -0.27 C16.69 -6.69, 9.3 -13.11, 2.95 -18.64 M24.08 -0.27 C19.73 -4.05, 15.37 -7.84, 2.95 -18.64 M35.37 -1.06 C23.63 -11.26, 11.9 -21.46, 5.93 -26.64 M35.37 -1.06 C24.01 -10.93, 12.65 -20.8, 5.93 -26.64 M42.88 -5.12 C31.18 -15.29, 19.49 -25.46, 11.18 -32.68 M42.88 -5.12 C33.74 -13.07, 24.61 -21.01, 11.18 -32.68 M41.34 -17.07 C35.28 -22.33, 29.23 -27.59, 18.7 -36.75 M41.34 -17.07 C36.52 -21.26, 31.7 -25.45, 18.7 -36.75" stroke="#ced4da" stroke-width="1" fill="none"></path><path d="M0 0 C0.78 -4.11, 1.34 -18.46, 4.68 -24.67 C8.03 -30.87, 14.94 -36.78, 20.07 -37.23 C25.2 -37.68, 31.83 -33.14, 35.45 -27.36 C39.07 -21.58, 47.71 -7.12, 41.81 -2.56 C35.9 2, 6.97 -0.43, 0 0 M0 0 C0.78 -4.11, 1.34 -18.46, 4.68 -24.67 C8.03 -30.87, 14.94 -36.78, 20.07 -37.23 C25.2 -37.68, 31.83 -33.14, 35.45 -27.36 C39.07 -21.58, 47.71 -7.12, 41.81 -2.56 C35.9 2, 6.97 -0.43, 0 0" stroke="#000000" stroke-width="2" fill="none"></path></g></g><mask></mask><g stroke-linecap="round" transform="translate(174.64208778804584 12.939592201446658) rotate(0 10.702336545928858 9.364544477687808)"><path d="M2.43 3.43 C2.43 3.43, 2.43 3.43, 2.43 3.43 M2.43 3.43 C2.43 3.43, 2.43 3.43, 2.43 3.43 M2.56 15.48 C5.9 11.63, 9.25 7.78, 15.02 1.14 M2.56 15.48 C5.88 11.65, 9.21 7.83, 15.02 1.14 M10.57 18.46 C14.03 14.48, 17.49 10.5, 21.06 6.38 M10.57 18.46 C13.32 15.29, 16.07 12.12, 21.06 6.38 M4.02 16.71 C4.02 16.71, 4.02 16.71, 4.02 16.71 M4.02 16.71 C4.02 16.71, 4.02 16.71, 4.02 16.71 M16.82 17.23 C12.98 13.89, 9.13 10.55, 1.72 4.11 M16.82 17.23 C13.31 14.19, 9.81 11.14, 1.72 4.11 M21.31 10.54 C17.05 6.84, 12.8 3.14, 9.24 0.04 M21.31 10.54 C16.64 6.48, 11.96 2.41, 9.24 0.04" stroke="#ced4da" stroke-width="1" fill="none"></path><path d="M21.4 9.36 C21.4 9.91, 21.35 10.46, 21.24 10.99 C21.13 11.52, 20.97 12.06, 20.76 12.57 C20.55 13.08, 20.28 13.58, 19.97 14.05 C19.66 14.52, 19.3 14.97, 18.9 15.38 C18.5 15.8, 18.06 16.19, 17.58 16.54 C17.11 16.89, 16.59 17.2, 16.05 17.47 C15.52 17.75, 14.94 17.98, 14.36 18.16 C13.78 18.35, 13.17 18.49, 12.56 18.59 C11.95 18.68, 11.32 18.73, 10.7 18.73 C10.08 18.73, 9.45 18.68, 8.84 18.59 C8.23 18.49, 7.62 18.35, 7.04 18.16 C6.46 17.98, 5.89 17.75, 5.35 17.47 C4.81 17.2, 4.3 16.89, 3.82 16.54 C3.35 16.19, 2.9 15.8, 2.5 15.38 C2.11 14.97, 1.74 14.52, 1.43 14.05 C1.12 13.58, 0.86 13.08, 0.65 12.57 C0.43 12.06, 0.27 11.52, 0.16 10.99 C0.06 10.46, 0 9.91, 0 9.36 C0 8.82, 0.06 8.27, 0.16 7.74 C0.27 7.2, 0.43 6.67, 0.65 6.16 C0.86 5.65, 1.12 5.15, 1.43 4.68 C1.74 4.21, 2.11 3.76, 2.5 3.35 C2.9 2.93, 3.35 2.54, 3.82 2.19 C4.3 1.84, 4.81 1.53, 5.35 1.25 C5.89 0.98, 6.46 0.75, 7.04 0.56 C7.62 0.38, 8.23 0.24, 8.84 0.14 C9.45 0.05, 10.08 0, 10.7 0 C11.32 0, 11.95 0.05, 12.56 0.14 C13.17 0.24, 13.78 0.38, 14.36 0.56 C14.94 0.75, 15.52 0.98, 16.05 1.25 C16.59 1.53, 17.11 1.84, 17.58 2.19 C18.06 2.54, 18.5 2.93, 18.9 3.35 C19.3 3.76, 19.66 4.21, 19.97 4.68 C20.28 5.15, 20.55 5.65, 20.76 6.16 C20.97 6.67, 21.13 7.2, 21.24 7.74 C21.35 8.27, 21.38 9.09, 21.4 9.36 C21.43 9.64, 21.43 9.09, 21.4 9.36" stroke="#000000" stroke-width="2" fill="none"></path></g><g stroke-linecap="round"><g transform="translate(193.30730109168678 35.84503883623074) rotate(0 16.71865860152218 9.951582500906)" fill-rule="evenodd"><path d="M0 0 C0 0, 0 0, 0 0 M0 0 C0 0, 0 0, 0 0 M6.04 5.25 C9.04 1.79, 12.05 -1.67, 17.85 -8.34 M6.04 5.25 C8.78 2.09, 11.52 -1.06, 17.85 -8.34 M10.11 12.76 C15.43 6.64, 20.75 0.52, 25.2 -4.6 M10.11 12.76 C15.95 6.04, 21.79 -0.68, 25.2 -4.6 M14.18 20.27 C18.55 15.25, 22.91 10.22, 29.27 2.92 M14.18 20.27 C17.4 16.56, 20.63 12.85, 29.27 2.92 M17.59 28.54 C21.35 24.22, 25.1 19.9, 32.02 11.94 M17.59 28.54 C21.11 24.49, 24.63 20.44, 32.02 11.94 M29.53 27 C30.72 25.64, 31.9 24.28, 34.12 21.71 M29.53 27 C30.77 25.57, 32.01 24.14, 34.12 21.71 M14.43 27.6 C14.43 27.6, 14.43 27.6, 14.43 27.6 M14.43 27.6 C14.43 27.6, 14.43 27.6, 14.43 27.6 M26.47 27.47 C20.68 22.43, 14.88 17.4, 9.87 13.04 M26.47 27.47 C22.78 24.27, 19.09 21.06, 9.87 13.04 M33.23 22.75 C22.58 13.49, 11.93 4.23, 3.04 -3.5 M33.23 22.75 C22.74 13.62, 12.24 4.5, 3.04 -3.5 M31.68 10.8 C26.84 6.59, 21.99 2.38, 9.8 -8.22 M31.68 10.8 C24.05 4.16, 16.41 -2.48, 9.8 -8.22" stroke="#ced4da" stroke-width="1" fill="none"></path><path d="M0 0 C0.86 -0.93, 3.58 -4.18, 5.17 -5.57 C6.77 -6.97, 7.56 -7.83, 9.55 -8.36 C11.54 -8.89, 14.99 -8.89, 17.12 -8.76 C19.24 -8.62, 20.83 -8.43, 22.29 -7.56 C23.75 -6.7, 24.88 -5.11, 25.87 -3.58 C26.87 -2.06, 27.47 -0.33, 28.26 1.59 C29.06 3.52, 29.92 5.84, 30.65 7.96 C31.38 10.08, 32.18 12.41, 32.64 14.33 C33.11 16.25, 33.44 17.78, 33.44 19.51 C33.44 21.23, 33.3 23.42, 32.64 24.68 C31.98 25.94, 30.72 26.47, 29.46 27.07 C28.2 27.67, 26.87 28, 25.08 28.26 C23.29 28.53, 20.43 28.73, 18.71 28.66 C16.98 28.59, 15.46 28.93, 14.73 27.86 C14 26.8, 14.66 23.82, 14.33 22.29 C14 20.77, 13.47 20.23, 12.74 18.71 C12.01 17.18, 11.08 15.33, 9.95 13.14 C8.82 10.95, 7.63 7.76, 5.97 5.57 C4.31 3.38, 1 0.93, 0 0 M0 0 C0.86 -0.93, 3.58 -4.18, 5.17 -5.57 C6.77 -6.97, 7.56 -7.83, 9.55 -8.36 C11.54 -8.89, 14.99 -8.89, 17.12 -8.76 C19.24 -8.62, 20.83 -8.43, 22.29 -7.56 C23.75 -6.7, 24.88 -5.11, 25.87 -3.58 C26.87 -2.06, 27.47 -0.33, 28.26 1.59 C29.06 3.52, 29.92 5.84, 30.65 7.96 C31.38 10.08, 32.18 12.41, 32.64 14.33 C33.11 16.25, 33.44 17.78, 33.44 19.51 C33.44 21.23, 33.3 23.42, 32.64 24.68 C31.98 25.94, 30.72 26.47, 29.46 27.07 C28.2 27.67, 26.87 28, 25.08 28.26 C23.29 28.53, 20.43 28.73, 18.71 28.66 C16.98 28.59, 15.46 28.93, 14.73 27.86 C14 26.8, 14.66 23.82, 14.33 22.29 C14 20.77, 13.47 20.23, 12.74 18.71 C12.01 17.18, 11.08 15.33, 9.95 13.14 C8.82 10.95, 7.63 7.76, 5.97 5.57 C4.31 3.38, 1 0.93, 0 0" stroke="#000000" stroke-width="2" fill="none"></path></g></g><mask></mask><g stroke-linecap="round"><g transform="translate(175.38851463835283 35.833162932826326) rotate(0 -16.121563651467852 11.941899001087322)" fill-rule="evenodd"><path d="M-24.42 -2.68 C-24.42 -2.68, -24.42 -2.68, -24.42 -2.68 M-24.42 -2.68 C-24.42 -2.68, -24.42 -2.68, -24.42 -2.68 M-31.51 17.66 C-23.2 8.1, -14.89 -1.45, -10.51 -6.49 M-31.51 17.66 C-24.12 9.17, -16.74 0.67, -10.51 -6.49 M-29.41 27.44 C-22.67 19.69, -15.94 11.94, -2.51 -3.51 M-29.41 27.44 C-20.5 17.19, -11.59 6.94, -2.51 -3.51 M-22.06 31.18 C-19.06 27.72, -16.05 24.27, -8.28 15.33 M-22.06 31.18 C-16.55 24.85, -11.05 18.52, -8.28 15.33 M-12.08 31.9 C-11.74 31.5, -11.39 31.1, -10.77 30.39 M-12.08 31.9 C-11.63 31.37, -11.17 30.85, -10.77 30.39 M-31.63 25.72 C-31.63 25.72, -31.63 25.72, -31.63 25.72 M-31.63 25.72 C-31.63 25.72, -31.63 25.72, -31.63 25.72 M-12.8 31.49 C-17.13 27.72, -21.46 23.95, -30.91 15.74 M-12.8 31.49 C-19.17 25.94, -25.55 20.4, -30.91 15.74 M-9.06 24.14 C-16.03 18.08, -22.99 12.02, -28.68 7.08 M-9.06 24.14 C-16.41 17.74, -23.77 11.35, -28.68 7.08 M-8.34 14.16 C-14.33 8.95, -20.33 3.74, -25.7 -0.93 M-8.34 14.16 C-13.32 9.83, -18.31 5.5, -25.7 -0.93 M-4.6 6.81 C-9.17 2.84, -13.74 -1.13, -20.45 -6.96 M-4.6 6.81 C-9.46 2.58, -14.33 -1.65, -20.45 -6.96 M-0.1 0.12 C-2.12 -1.63, -4.13 -3.38, -9.16 -7.75 M-0.1 0.12 C-3.27 -2.63, -6.44 -5.38, -9.16 -7.75" stroke="#ced4da" stroke-width="1" fill="none"></path><path d="M0 0 C-0.66 -0.73, -2.59 -3.18, -3.98 -4.38 C-5.37 -5.57, -6.37 -6.63, -8.36 -7.17 C-10.35 -7.7, -13.8 -7.7, -15.92 -7.56 C-18.05 -7.43, -19.64 -7.23, -21.1 -6.37 C-22.56 -5.51, -23.68 -3.91, -24.68 -2.39 C-25.68 -0.86, -26.27 0.86, -27.07 2.79 C-27.86 4.71, -28.73 7.03, -29.46 9.16 C-30.19 11.28, -30.98 13.6, -31.45 15.52 C-31.91 17.45, -32.24 18.97, -32.24 20.7 C-32.24 22.42, -32.11 24.61, -31.45 25.87 C-30.78 27.13, -29.46 27.53, -28.26 28.26 C-27.07 28.99, -26.01 29.72, -24.28 30.25 C-22.56 30.78, -20.1 31.25, -17.91 31.45 C-15.72 31.65, -12.41 32.64, -11.15 31.45 C-9.89 30.25, -10.62 26.07, -10.35 24.28 C-10.08 22.49, -9.89 22.29, -9.55 20.7 C-9.22 19.11, -9.16 17.05, -8.36 14.73 C-7.56 12.41, -6.17 9.22, -4.78 6.77 C-3.38 4.31, -0.8 1.13, 0 0 M0 0 C-0.66 -0.73, -2.59 -3.18, -3.98 -4.38 C-5.37 -5.57, -6.37 -6.63, -8.36 -7.17 C-10.35 -7.7, -13.8 -7.7, -15.92 -7.56 C-18.05 -7.43, -19.64 -7.23, -21.1 -6.37 C-22.56 -5.51, -23.68 -3.91, -24.68 -2.39 C-25.68 -0.86, -26.27 0.86, -27.07 2.79 C-27.86 4.71, -28.73 7.03, -29.46 9.16 C-30.19 11.28, -30.98 13.6, -31.45 15.52 C-31.91 17.45, -32.24 18.97, -32.24 20.7 C-32.24 22.42, -32.11 24.61, -31.45 25.87 C-30.78 27.13, -29.46 27.53, -28.26 28.26 C-27.07 28.99, -26.01 29.72, -24.28 30.25 C-22.56 30.78, -20.1 31.25, -17.91 31.45 C-15.72 31.65, -12.41 32.64, -11.15 31.45 C-9.89 30.25, -10.62 26.07, -10.35 24.28 C-10.08 22.49, -9.89 22.29, -9.55 20.7 C-9.22 19.11, -9.16 17.05, -8.36 14.73 C-7.56 12.41, -6.17 9.22, -4.78 6.77 C-3.38 4.31, -0.8 1.13, 0 0" stroke="#000000" stroke-width="2" fill="none"></path></g></g><mask></mask><g stroke-linecap="round" transform="translate(60.277034065074076 120.73929666716845) rotate(0 130.890625 31.32421875)"><path d="M15.66 0 C90.51 -3.42, 165.63 -1.78, 246.12 0 M15.66 0 C96.99 2.11, 179.22 2.26, 246.12 0 M246.12 0 C255.46 -1.83, 262.98 4.93, 261.78 15.66 M246.12 0 C254.29 -1.81, 260.2 6.63, 261.78 15.66 M261.78 15.66 C259.74 27.95, 262.98 39, 261.78 46.99 M261.78 15.66 C260.99 23.64, 262.35 32.35, 261.78 46.99 M261.78 46.99 C262.61 57.74, 257.18 61.76, 246.12 62.65 M261.78 46.99 C263.16 56, 256.4 61, 246.12 62.65 M246.12 62.65 C157.17 65.04, 64.67 65.12, 15.66 62.65 M246.12 62.65 C158.52 60.23, 69.2 61.1, 15.66 62.65 M15.66 62.65 C5.81 62.74, 0.03 59.37, 0 46.99 M15.66 62.65 C7.47 63.82, 2.16 59.6, 0 46.99 M0 46.99 C1.06 38.48, -1.79 29.97, 0 15.66 M0 46.99 C0.56 37.68, 0.52 30, 0 15.66 M0 15.66 C-0.5 4.29, 6.01 0.41, 15.66 0 M0 15.66 C-0.29 4.1, 3.29 -0.53, 15.66 0" stroke="#1e1e1e" stroke-width="2" fill="none"></path></g><g transform="translate(149.43769385511314 139.56351541716845) rotate(0 41.72996520996094 12.5)"><text x="41.72996520996094" y="17.52" font-family="Virgil, Segoe UI Emoji" font-size="20px" fill="#1e1e1e" text-anchor="middle" style="white-space: pre;" direction="ltr" dominant-baseline="alphabetic">Frontend</text></g><g stroke-linecap="round"><g transform="translate(234.91375281507408 51.262734167168446) rotate(0 15.69921875 30.880859375)"><path d="M0.93 -0.56 C6.1 3.58, 28.98 13.97, 30.41 24.36 C31.83 34.75, 12.85 55.73, 9.48 61.78 M-0.05 1.76 C5.55 6.14, 31.12 15.63, 32.6 25.85 C34.07 36.08, 12.43 57.22, 8.8 63.11" stroke="#1e1e1e" stroke-width="2" fill="none"></path></g><g transform="translate(234.91375281507408 51.262734167168446) rotate(0 15.69921875 30.880859375)"><path d="M15.81 42.59 C13.05 46.07, 12.1 53.07, 8.8 63.11 M15.81 42.59 C13.01 47.82, 11.37 55.79, 8.8 63.11" stroke="#1e1e1e" stroke-width="2" fill="none"></path></g><g transform="translate(234.91375281507408 51.262734167168446) rotate(0 15.69921875 30.880859375)"><path d="M27.36 51.9 C21.78 53.16, 17.98 57.87, 8.8 63.11 M27.36 51.9 C21.01 54.21, 15.88 59.37, 8.8 63.11" stroke="#1e1e1e" stroke-width="2" fill="none"></path></g></g><mask></mask><g stroke-linecap="round"><g transform="translate(325.7535965650741 145.3481189378178) rotate(0 25.396484375 74.40237928237494)"><path d="M-0.47 0.28 C8.25 11.22, 52.18 41.59, 52.05 66.53 C51.92 91.46, 8.02 136.18, -1.22 149.89 M1.49 -0.62 C10.59 9.92, 54.67 40.1, 54.19 64.89 C53.71 89.68, 8.26 133.95, -1.4 148.12" stroke="#1e1e1e" stroke-width="2" fill="none"></path></g><g transform="translate(325.7535965650741 145.3481189378178) rotate(0 25.396484375 74.40237928237494)"><path d="M6.99 124.57 C5.31 129.24, 4.06 139.45, -1.4 148.12 M6.99 124.57 C2.92 133.89, -0.49 143.73, -1.4 148.12" stroke="#1e1e1e" stroke-width="2" fill="none"></path></g><g transform="translate(325.7535965650741 145.3481189378178) rotate(0 25.396484375 74.40237928237494)"><path d="M20.17 135.48 C14.75 137.08, 9.86 144.27, -1.4 148.12 M20.17 135.48 C11.05 140.53, 2.49 146.12, -1.4 148.12" stroke="#1e1e1e" stroke-width="2" fill="none"></path></g></g><mask></mask><g stroke-opacity="0.2" fill-opacity="0.2" stroke-linecap="round" transform="translate(10 204.7097140051029) rotate(0 191.1015625 279.166015625)"><path d="M32 0 C141.77 2.7, 250.31 0.59, 350.2 0 C368.1 1.83, 381.12 8.77, 382.2 32 C385.5 168.6, 383.99 306.07, 382.2 526.33 C382.31 549.49, 372.52 556.26, 350.2 558.33 C277.76 557.13, 206.91 561.02, 32 558.33 C10.27 560.64, -0.99 546.32, 0 526.33 C1.47 399.66, -0.81 271.25, 0 32 C-0.64 8.82, 9.65 2.44, 32 0" stroke="none" stroke-width="0" fill="#e9ecef"></path><path d="M32 0 C131.35 -1.05, 229.53 -1.18, 350.2 0 M350.2 0 C372.26 1.7, 384.08 10.83, 382.2 32 M382.2 32 C383.35 217.29, 383.53 400.81, 382.2 526.33 M382.2 526.33 C380.69 549.21, 372.34 557.52, 350.2 558.33 M350.2 558.33 C242.85 559.19, 136.68 556.49, 32 558.33 M32 558.33 C11.81 556.45, 1.32 546.74, 0 526.33 M0 526.33 C-2.29 382.56, -1.9 237.68, 0 32 M0 32 C-1.92 9.83, 10.51 -1.42, 32 0" stroke="#000000" stroke-width="2.5" fill="none" stroke-dasharray="1.5 8"></path></g><g transform="translate(132.08172156507408 213.02835916716845) rotate(0 54.65997314453125 12.5)"><text x="0" y="17.52" font-family="Virgil, Segoe UI Emoji" font-size="20px" fill="#1e1e1e" text-anchor="start" style="white-space: pre;" direction="ltr" dominant-baseline="alphabetic">   Backend</text></g><g stroke-linecap="round" transform="translate(61.679377815074076 373.85257791716845) rotate(0 130.890625 31.32421875)"><path d="M15.66 0 C99.75 -0.47, 186.6 -0.66, 246.12 0 M15.66 0 C67.27 0.21, 120.88 -0.49, 246.12 0 M246.12 0 C256.26 1.03, 261.3 5.79, 261.78 15.66 M246.12 0 C255.3 0.39, 262.09 3.27, 261.78 15.66 M261.78 15.66 C261.26 27.61, 260.65 41.61, 261.78 46.99 M261.78 15.66 C262.21 28, 261.22 39.92, 261.78 46.99 M261.78 46.99 C260.57 55.73, 256.56 60.85, 246.12 62.65 M261.78 46.99 C260.29 58.2, 258.46 64.19, 246.12 62.65 M246.12 62.65 C179.59 64.1, 111.45 63.05, 15.66 62.65 M246.12 62.65 C165.53 63.39, 86.27 63.2, 15.66 62.65 M15.66 62.65 C3.77 63.79, -1.71 59.17, 0 46.99 M15.66 62.65 C4.6 63.29, 0.01 58.66, 0 46.99 M0 46.99 C-0.24 36.53, 0.61 25.57, 0 15.66 M0 46.99 C0.77 33.91, 0.53 23.13, 0 15.66 M0 15.66 C-0.57 3.29, 7.12 0.4, 15.66 0 M0 15.66 C0.84 5.16, 7.35 0.29, 15.66 0" stroke="#1e1e1e" stroke-width="2" fill="none"></path></g><g transform="translate(158.81003882581626 392.67679666716845) rotate(0 33.75996398925781 12.5)"><text x="33.75996398925781" y="17.52" font-family="Virgil, Segoe UI Emoji" font-size="20px" fill="#1e1e1e" text-anchor="middle" style="white-space: pre;" direction="ltr" dominant-baseline="alphabetic">Service</text></g><g stroke-linecap="round" transform="translate(60.851252815074076 476.41507791716845) rotate(0 130.890625 31.32421875)"><path d="M15.66 0 C99.49 -1.97, 180.6 -0.89, 246.12 0 M15.66 0 C99.26 -0.33, 182.05 -1.61, 246.12 0 M246.12 0 C256.62 -1.17, 263.54 6.42, 261.78 15.66 M246.12 0 C257.06 1.54, 262.51 5.08, 261.78 15.66 M261.78 15.66 C260.38 24.22, 260.32 29.02, 261.78 46.99 M261.78 15.66 C261.09 26.1, 262.92 36.33, 261.78 46.99 M261.78 46.99 C260.5 59.12, 257.02 62.48, 246.12 62.65 M261.78 46.99 C263.84 56.73, 256.69 64.51, 246.12 62.65 M246.12 62.65 C162.76 62.31, 81.95 61.67, 15.66 62.65 M246.12 62.65 C159.86 63.46, 74.95 64.71, 15.66 62.65 M15.66 62.65 C5.75 63, -1 57.72, 0 46.99 M15.66 62.65 C2.96 60.46, 0.1 55.63, 0 46.99 M0 46.99 C-0.22 40.94, -1.11 32.62, 0 15.66 M0 46.99 C-0.09 35.98, -0.23 25.15, 0 15.66 M0 15.66 C-1.78 5.76, 5.69 1.66, 15.66 0 M0 15.66 C-1.49 3.85, 3.59 1.04, 15.66 0" stroke="#1e1e1e" stroke-width="2" fill="none"></path></g><g transform="translate(170.1218903272811 495.23929666716845) rotate(0 21.61998748779297 12.5)"><text x="21.61998748779297" y="17.52" font-family="Virgil, Segoe UI Emoji" font-size="20px" fill="#1e1e1e" text-anchor="middle" style="white-space: pre;" direction="ltr" dominant-baseline="alphabetic">DAO</text></g><g stroke-linecap="round" transform="translate(59.952815315074076 576.8799216671684) rotate(0 130.890625 31.32421875)"><path d="M15.66 0 C91.99 0.55, 171.86 1.14, 246.12 0 M15.66 0 C90.81 0.48, 165.62 0.46, 246.12 0 M246.12 0 C255.27 1.6, 259.84 6.11, 261.78 15.66 M246.12 0 C256.74 2.08, 262.59 6.28, 261.78 15.66 M261.78 15.66 C260.6 29.79, 261.94 41.63, 261.78 46.99 M261.78 15.66 C262.53 22.03, 261.75 28.64, 261.78 46.99 M261.78 46.99 C261.33 56.39, 258.3 63.89, 246.12 62.65 M261.78 46.99 C262.49 56.77, 256.32 64.03, 246.12 62.65 M246.12 62.65 C180.13 61.97, 111.43 61.52, 15.66 62.65 M246.12 62.65 C185.96 62.27, 126.83 61.48, 15.66 62.65 M15.66 62.65 C6.79 64.03, 1.82 56.97, 0 46.99 M15.66 62.65 C5.11 61.52, 0.2 56.04, 0 46.99 M0 46.99 C1.41 37.52, -0.61 25.74, 0 15.66 M0 46.99 C0.9 36.05, 1.06 24.8, 0 15.66 M0 15.66 C-0.52 6.53, 4.37 -1.12, 15.66 0 M0 15.66 C-0.03 3.34, 7.35 0.25, 15.66 0" stroke="#1e1e1e" stroke-width="2" fill="none"></path></g><g transform="translate(140.3234970777694 595.7041404171684) rotate(0 50.51994323730469 12.5)"><text x="50.51994323730469" y="17.52" font-family="Virgil, Segoe UI Emoji" font-size="20px" fill="#1e1e1e" text-anchor="middle" style="white-space: pre;" direction="ltr" dominant-baseline="alphabetic">Repository</text></g><g stroke-linecap="round"><g transform="translate(123.65625517125181 701.2379936618324) rotate(0 3.3381223401369766 -8.780713112098624)"><path d="M0.36 0.7 C0.08 -0.02, -1 -2.11, -1.64 -3.26 C-2.28 -4.4, -2.93 -5.9, -3.49 -6.18 C-4.04 -6.45, -4.63 -5.92, -4.99 -4.92 C-5.34 -3.92, -5.3 -0.12, -5.63 -0.19 C-5.95 -0.25, -6.5 -3.86, -6.93 -5.32 C-7.37 -6.77, -8.07 -7.98, -8.23 -8.91 C-8.39 -9.85, -7.65 -9.98, -7.9 -10.94 C-8.16 -11.9, -9.54 -13.44, -9.76 -14.69 C-9.99 -15.94, -8.96 -17.05, -9.25 -18.44 C-9.54 -19.83, -10.94 -22.06, -11.51 -23.02 C-12.08 -23.98, -12.84 -23.87, -12.7 -24.22 C-12.55 -24.56, -11.56 -25.23, -10.64 -25.07 C-9.72 -24.92, -8.19 -23.85, -7.17 -23.31 C-6.15 -22.76, -5.9 -22.74, -4.54 -21.82 C-3.18 -20.89, -0.84 -19.03, 0.98 -17.76 C2.79 -16.48, 4.84 -16.28, 6.33 -14.17 C7.81 -12.07, 8.86 -6.93, 9.88 -5.15 C10.9 -3.36, 10.97 -4.55, 12.45 -3.49 C13.92 -2.42, 18.87 0.49, 18.74 1.25 C18.6 2.02, 12.48 0.62, 11.64 1.1 C10.8 1.57, 12.45 2.99, 13.7 4.1 C14.94 5.2, 18 7.35, 19.09 7.72 M-0.91 0.03 C-1.31 -0.03, -1.79 -1.22, -2.32 -2.01 C-2.84 -2.8, -3.65 -4.38, -4.04 -4.73 C-4.44 -5.08, -4.77 -5, -4.69 -4.11 C-4.61 -3.22, -2.87 0.42, -3.57 0.6 C-4.27 0.78, -8.21 -1.28, -8.9 -3.05 C-9.59 -4.82, -8.23 -8.76, -7.72 -10.03 C-7.21 -11.29, -5.73 -10.22, -5.84 -10.66 C-5.95 -11.1, -7.38 -11.29, -8.37 -12.66 C-9.35 -14.02, -10.76 -17.21, -11.75 -18.86 C-12.73 -20.51, -14.49 -21.54, -14.3 -22.54 C-14.11 -23.53, -11.26 -24.23, -10.6 -24.82 C-9.94 -25.42, -10.83 -26.25, -10.35 -26.11 C-9.87 -25.97, -8.75 -24.64, -7.71 -24 C-6.68 -23.36, -5.74 -22.99, -4.12 -22.25 C-2.5 -21.51, 0.45 -21.02, 1.99 -19.58 C3.53 -18.15, 4.03 -16.04, 5.12 -13.63 C6.2 -11.22, 6.95 -6.81, 8.49 -5.12 C10.03 -3.42, 13.11 -4.29, 14.38 -3.46 C15.65 -2.64, 16.19 -1.27, 16.1 -0.17 C16.02 0.93, 14.33 2.62, 13.88 3.12 C13.44 3.62, 12.59 2.17, 13.44 2.84 C14.29 3.52, 18.12 6.2, 19 7.17" stroke="#00758f" stroke-width="2" fill="none"></path></g></g><mask></mask><g transform="translate(61.232763231739455 701.2447455923638) rotate(0 17.344327325627034 14.854300135314247)"><text x="34.68865465125408" y="23.75822683537269" font-family="Helvetica, Segoe UI Emoji" font-size="25.873385977502892px" fill="#00758f" text-anchor="end" style="white-space: pre;" direction="ltr" dominant-baseline="alphabetic">My</text></g><g transform="translate(95.19815804262703 701.9401877465607) rotate(0 25.953901194562775 14.854644413608298)"><text x="51.90780238912552" y="23.758915391960763" font-family="Helvetica, Segoe UI Emoji" font-size="25.873385977502878px" fill="#f29111" text-anchor="end" style="white-space: pre;" direction="ltr" dominant-baseline="alphabetic">SQL</text></g><g stroke-linecap="round"><g transform="translate(117.32859545603174 682.0529460505971) rotate(0 0.4790823728899909 0.6877150191484702)"><path d="M0.03 -0.17 C0.15 0.09, 0.7 1.38, 0.88 1.6 M-0.39 0.51 C-0.32 0.66, 0.34 0.93, 0.56 1.09" stroke="#00758f" stroke-width="2" fill="none"></path></g></g><mask></mask><g stroke-linecap="round"><g transform="translate(214.85753119020183 668.5682730388038) rotate(0 -9.16184310893135 32.40575127164561)"><path d="M-0.98 0.84 C-2.25 0.57, -4.96 -0.93, -6.93 -1.38 C-8.9 -1.84, -10.87 -2.37, -12.79 -1.9 C-14.72 -1.42, -15.01 1.52, -18.46 1.45 C-21.92 1.38, -29.27 -2.93, -33.5 -2.31 C-37.73 -1.69, -42.13 1.22, -43.84 5.17 C-45.55 9.13, -44.65 15.76, -43.75 21.44 C-42.85 27.12, -41.02 34.52, -38.44 39.25 C-35.87 43.98, -31.39 50.05, -28.29 49.8 C-25.2 49.54, -21.79 39.67, -19.89 37.74 C-17.99 35.8, -17.92 37.88, -16.92 38.17 C-15.92 38.46, -14.12 38.9, -13.87 39.47 C-13.61 40.04, -14.41 40.76, -15.39 41.59 C-16.36 42.42, -18.52 43.78, -19.73 44.48 C-20.94 45.17, -23.09 45.3, -22.65 45.77 C-22.22 46.24, -18.99 47.21, -17.13 47.29 C-15.27 47.37, -12.87 46.1, -11.49 46.26 C-10.11 46.42, -9.37 46.02, -8.83 48.23 C-8.3 50.45, -9.19 56.43, -8.28 59.56 C-7.37 62.68, -5.89 65.88, -3.39 66.98 C-0.89 68.07, 4.72 67.55, 6.72 66.14 C8.72 64.72, 8.01 61.35, 8.61 58.5 C9.2 55.66, 9.7 51.35, 10.28 49.07 C10.87 46.8, 10.62 45.73, 12.11 44.84 C13.59 43.95, 17.25 44.61, 19.21 43.71 C21.16 42.81, 24.24 40.05, 23.85 39.43 C23.45 38.81, 18.62 40.45, 16.86 39.97 C15.09 39.49, 12.92 38.52, 13.28 36.54 C13.64 34.57, 17.11 31.44, 19.01 28.1 C20.91 24.76, 23.47 20.6, 24.66 16.5 C25.84 12.39, 27.5 6.66, 26.12 3.46 C24.74 0.25, 19.61 -1.53, 16.35 -2.73 C13.09 -3.94, 9.22 -4.1, 6.58 -3.77 C3.93 -3.44, 1.53 -1.42, 0.45 -0.75 M0.71 0.23 C-0.76 -0.4, -5.37 -2.91, -7.77 -3.13 C-10.17 -3.35, -11.88 -1.53, -13.7 -1.09 C-15.52 -0.66, -15.11 -0.41, -18.67 -0.54 C-22.24 -0.67, -30.55 -2.71, -35.09 -1.89 C-39.63 -1.08, -44.58 0.72, -45.91 4.36 C-47.23 7.99, -44.62 14.18, -43.03 19.93 C-41.43 25.67, -38.57 33.99, -36.33 38.83 C-34.1 43.68, -32.54 48.74, -29.63 48.99 C-26.71 49.25, -20.91 42.07, -18.84 40.37 C-16.77 38.67, -17.83 39.08, -17.21 38.78 C-16.59 38.48, -15.54 37.73, -15.13 38.59 C-14.73 39.44, -14.41 42.92, -14.77 43.9 C-15.12 44.89, -16.05 44.35, -17.26 44.5 C-18.48 44.65, -22.23 44.15, -22.07 44.82 C-21.91 45.48, -17.91 48.2, -16.3 48.5 C-14.68 48.79, -13.46 46.55, -12.38 46.6 C-11.3 46.65, -10.82 46.65, -9.83 48.81 C-8.83 50.97, -7.54 56.27, -6.39 59.56 C-5.24 62.85, -4.94 67.57, -2.92 68.55 C-0.89 69.53, 3.87 67.34, 5.75 65.45 C7.64 63.56, 7.62 60.01, 8.41 57.22 C9.2 54.42, 10.14 50.86, 10.5 48.69 C10.87 46.53, 9.43 45.04, 10.59 44.21 C11.76 43.38, 15.11 44.61, 17.5 43.73 C19.89 42.84, 24.89 39.57, 24.93 38.91 C24.96 38.24, 19.5 39.83, 17.7 39.75 C15.91 39.67, 13.94 40.66, 14.15 38.42 C14.35 36.18, 16.89 30.12, 18.92 26.32 C20.95 22.52, 25.16 19.68, 26.32 15.62 C27.48 11.55, 27.64 4.75, 25.88 1.94 C24.12 -0.86, 18.77 -0.69, 15.75 -1.2 C12.74 -1.72, 10.61 -1.36, 7.78 -1.15 C4.94 -0.95, -0.25 -0.12, -1.25 0.03" stroke="#000000" stroke-width="1" fill="none"></path></g></g><mask></mask><g stroke-linecap="round"><g transform="translate(198.96250866056516 669.0477711248674) rotate(0 0.03807914841621596 22.923647346536256)"><path d="M0.2 0.72 C-0.47 1.23, -3.67 1.57, -5.03 3.93 C-6.4 6.29, -7.78 11.54, -7.99 14.9 C-8.2 18.27, -6.45 21.52, -6.31 24.11 C-6.16 26.71, -7.2 28.74, -7.12 30.47 C-7.04 32.19, -6.45 33.35, -5.83 34.45 C-5.21 35.55, -4.85 36.09, -3.4 37.06 C-1.94 38.04, 1.2 39.9, 2.9 40.29 C4.59 40.68, 6.2 38.93, 6.78 39.39 C7.36 39.85, 6.54 42.11, 6.38 43.04 C6.22 43.97, 5.82 44.66, 5.8 44.96 M-1.15 0.05 C-1.92 0.61, -5.39 2.77, -6.12 4.95 C-6.86 7.13, -5.55 9.75, -5.56 13.13 C-5.56 16.51, -5.7 22.25, -6.17 25.24 C-6.65 28.23, -8.71 29.75, -8.41 31.08 C-8.1 32.41, -5.2 32.49, -4.35 33.25 C-3.49 34.01, -4.37 34.43, -3.28 35.64 C-2.18 36.86, 0.77 39.62, 2.21 40.53 C3.66 41.44, 4.67 40.82, 5.39 41.1 C6.11 41.38, 6.39 41.48, 6.54 42.21 C6.69 42.94, 6.49 44.59, 6.27 45.49" stroke="#000000" stroke-width="1" fill="none"></path></g></g><mask></mask><g stroke-linecap="round"><g transform="translate(214.5899630998947 668.5741911343757) rotate(0 6.968484160159733 18.335109962387435)"><path d="M-0.12 -0.45 C0.44 -0.29, 1.84 0.3, 3.48 1.3 C5.13 2.29, 8.19 3.16, 9.73 5.5 C11.27 7.85, 12.35 12.25, 12.73 15.39 C13.1 18.52, 11.82 21.62, 11.95 24.3 C12.07 26.98, 13.36 29.32, 13.48 31.46 C13.59 33.61, 12.78 36.39, 12.64 37.18 M0.81 0.51 C1.54 0.5, 3.09 -0.35, 4.51 0.58 C5.93 1.52, 7.93 3.55, 9.33 6.11 C10.73 8.68, 12.59 12.94, 12.92 15.99 C13.25 19.04, 11.15 21.91, 11.31 24.41 C11.47 26.9, 13.59 28.89, 13.89 30.96 C14.18 33.03, 13.36 35.75, 13.08 36.83" stroke="#000000" stroke-width="1" fill="none"></path></g></g><mask></mask><g stroke-linecap="round"><g transform="translate(225.23350646497408 713.7182696747051) rotate(0 -1.1119111337523009 -15.741919955246033)"><path d="M-0.4 0.5 C-0.36 -0.12, -0.28 -3.12, 0.14 -4.16 C0.55 -5.2, 1.43 -5.29, 2.1 -5.77 C2.77 -6.25, 4.34 -6.53, 4.16 -7.02 C3.99 -7.52, 1.8 -7.93, 1.06 -8.75 C0.31 -9.57, 0.3 -10.38, -0.31 -11.95 C-0.93 -13.51, -1.54 -15.73, -2.63 -18.14 C-3.72 -20.54, -6.51 -24.13, -6.85 -26.37 C-7.2 -28.62, -6.17 -30.66, -4.71 -31.59 C-3.24 -32.52, 0.97 -31.99, 1.95 -31.94 M0.4 0.27 C0.37 -0.21, -0.58 -2.28, -0.34 -3.45 C-0.11 -4.62, 1.05 -6.21, 1.83 -6.74 C2.61 -7.26, 4.31 -6.28, 4.31 -6.59 C4.31 -6.9, 2.73 -7.67, 1.82 -8.6 C0.9 -9.53, -0.51 -10.7, -1.18 -12.16 C-1.85 -13.61, -1.42 -14.92, -2.21 -17.34 C-3 -19.76, -5.4 -24.46, -5.93 -26.7 C-6.46 -28.94, -6.52 -30.09, -5.4 -30.76 C-4.28 -31.43, -0.28 -30.72, 0.81 -30.72" stroke="#000000" stroke-width="1" fill="none"></path></g></g><mask></mask><g stroke-linecap="round"><g transform="translate(192.07159931363663 686.6204454530406) rotate(0 5.5405160945531975 9.36747051037861)"><path d="M-0.1 0.02 C0.62 -0.35, 2.45 -1.28, 3.89 -1.71 C5.33 -2.14, 7.4 -3.06, 8.52 -2.54 C9.64 -2.02, 10.15 -0.61, 10.62 1.42 C11.1 3.45, 11.53 7.49, 11.38 9.65 C11.23 11.8, 10.28 12.49, 9.73 14.35 C9.17 16.21, 8.21 19.74, 8.04 20.81 M-0.81 -0.44 C-0.12 -0.74, 2.04 -2.31, 3.54 -2.58 C5.04 -2.84, 7.05 -2.76, 8.21 -2.02 C9.37 -1.27, 10.06 0.15, 10.5 1.89 C10.94 3.63, 11.14 6.19, 10.86 8.42 C10.58 10.65, 9.3 13.08, 8.83 15.29 C8.36 17.5, 8.14 20.84, 8.06 21.69" stroke="#000000" stroke-width="1" fill="none"></path></g></g><mask></mask><g stroke-linecap="round"><g transform="translate(222.621237679513 683.7178814939292) rotate(358.18735542929625 -0.025445854999247786 1.1271198356784566)"><path d="M0.1 0.13 C-0.18 0.27, -1.74 0.52, -1.79 0.86 C-1.84 1.21, -0.82 2.24, -0.19 2.21 C0.43 2.19, 1.92 1.14, 1.97 0.72 C2.03 0.3, 0.55 -0.17, 0.16 -0.32 M-0.27 -0.12 C-0.6 0.08, -2.18 0.82, -2.05 1.27 C-1.92 1.72, -0.19 2.77, 0.5 2.58 C1.2 2.39, 2.26 0.63, 2.14 0.14 C2.03 -0.35, 0.18 -0.42, -0.19 -0.37" stroke="#000000" stroke-width="1" fill="none"></path></g></g><mask></mask><g stroke-linecap="round"><g transform="translate(198.94754210969484 685.6891521936562) rotate(14.802012269513854 0.04179291326806833 1.0598693104367953)"><path d="M0.04 -0.09 C-0.34 0.03, -2.16 0.44, -2.17 0.87 C-2.19 1.29, -0.65 2.35, -0.03 2.45 C0.59 2.54, 1.26 1.88, 1.53 1.45 C1.81 1.02, 1.86 0.14, 1.62 -0.14 C1.38 -0.43, 0.32 -0.24, 0.08 -0.26 M-0.36 -0.45 C-0.64 -0.28, -1.56 0.9, -1.53 1.3 C-1.49 1.69, -0.69 1.88, -0.16 1.93 C0.38 1.98, 1.31 1.95, 1.69 1.61 C2.06 1.26, 2.45 0.07, 2.08 -0.14 C1.71 -0.34, -0.27 0.31, -0.53 0.37" stroke="#000000" stroke-width="1" fill="none"></path></g></g><mask></mask><g stroke-linecap="round" transform="translate(263.2187959281764 652.2752769955727) rotate(0 40.75884187621165 40.606588316353054)"><path d="M39.47 -0.19 C46.22 -0.93, 55.4 1.59, 61.91 5.38 C68.42 9.17, 75.21 15.89, 78.5 22.55 C81.79 29.22, 82.65 37.99, 81.64 45.34 C80.64 52.69, 77.24 60.83, 72.46 66.68 C67.68 72.53, 60.05 78.19, 52.99 80.42 C45.93 82.64, 37.37 82.17, 30.11 80.04 C22.84 77.91, 14.47 73.22, 9.42 67.64 C4.37 62.06, 0.83 53.86, -0.2 46.55 C-1.22 39.25, 0.1 30.45, 3.29 23.81 C6.47 17.18, 12.24 10.65, 18.9 6.72 C25.56 2.8, 38.84 1.28, 43.26 0.26 C47.68 -0.77, 45.49 -0.22, 45.41 0.59 M23.05 4.65 C29.07 0.87, 37.51 -1.57, 44.47 -0.77 C51.43 0.04, 59.15 4.76, 64.83 9.49 C70.51 14.22, 75.96 20.98, 78.55 27.63 C81.15 34.28, 82.19 42.38, 80.39 49.38 C78.59 56.38, 72.92 64.52, 67.74 69.62 C62.56 74.71, 56.12 78.29, 49.31 79.92 C42.51 81.55, 33.81 81.89, 26.92 79.39 C20.02 76.89, 12.26 71.02, 7.95 64.93 C3.63 58.84, 1.57 50.38, 1.03 42.85 C0.49 35.31, 1.1 25.87, 4.69 19.72 C8.28 13.58, 19.47 8.4, 22.55 5.97 C25.64 3.54, 23.06 4.53, 23.23 5.12" stroke="none" stroke-width="0" fill="#3c8cbf"></path><path d="M57.48 3.23 C64.09 5.52, 70.65 12.82, 74.8 19.03 C78.94 25.25, 82.37 33.31, 82.33 40.53 C82.29 47.75, 78.6 56.3, 74.55 62.34 C70.5 68.39, 64.68 73.56, 58.03 76.78 C51.38 80, 41.87 82.71, 34.67 81.67 C27.46 80.64, 20.12 75.39, 14.8 70.56 C9.48 65.74, 4.95 59.68, 2.74 52.73 C0.53 45.78, -0.25 35.86, 1.54 28.89 C3.34 21.92, 7.93 15.69, 13.53 10.91 C19.13 6.13, 27.46 1.34, 35.15 0.21 C42.83 -0.91, 55.63 3.29, 59.65 4.17 C63.67 5.05, 59.78 4.84, 59.27 5.51 M56.24 2.6 C62.74 4.92, 68.88 11.56, 73.04 17.65 C77.2 23.75, 80.81 32.1, 81.19 39.18 C81.57 46.27, 78.94 54.08, 75.33 60.15 C71.71 66.23, 66.13 72.03, 59.51 75.64 C52.9 79.26, 42.86 82.3, 35.64 81.84 C28.43 81.39, 21.82 77.69, 16.23 72.89 C10.64 68.1, 4.69 60.02, 2.12 53.05 C-0.45 46.09, -1.19 37.91, 0.83 31.09 C2.85 24.28, 8.54 17.39, 14.22 12.17 C19.89 6.94, 27.7 1.37, 34.88 -0.24 C42.06 -1.85, 53.9 1.99, 57.3 2.49 C60.69 2.98, 55.57 1.92, 55.24 2.72" stroke="#ffffff" stroke-width="1" fill="none"></path></g><g stroke-linecap="round" transform="translate(263.10075242744654 652.6854217704017) rotate(0 40.75884187621165 40.606588316353054)"><path d="M35.03 -0.49 C42.16 -2.04, 52.27 -0.03, 59.07 3.14 C65.87 6.31, 71.99 12.23, 75.83 18.54 C79.67 24.85, 82.24 33.43, 82.11 41.01 C81.98 48.58, 79.13 57.83, 75.04 64.02 C70.95 70.2, 64.47 75.33, 57.56 78.13 C50.64 80.93, 40.99 82.06, 33.55 80.82 C26.12 79.57, 18.34 75.58, 12.96 70.63 C7.58 65.69, 3.05 58.15, 1.29 51.16 C-0.48 44.16, 0.09 35.55, 2.38 28.65 C4.67 21.75, 8.24 14.6, 15.04 9.76 C21.84 4.91, 37.32 0.75, 43.18 -0.4 C49.03 -1.56, 50.4 2.13, 50.15 2.84 M31.97 0.08 C38.29 -1.83, 47.08 0.71, 53.85 3.47 C60.62 6.23, 68.01 11.08, 72.59 16.66 C77.16 22.23, 80.87 29.77, 81.32 36.93 C81.77 44.1, 78.66 53.2, 75.28 59.65 C71.91 66.09, 67.09 71.86, 61.07 75.6 C55.04 79.34, 46.53 82.38, 39.15 82.08 C31.77 81.78, 22.69 78.29, 16.78 73.78 C10.86 69.28, 6.4 62.12, 3.65 55.05 C0.9 47.99, -1.2 38.34, 0.27 31.4 C1.75 24.47, 7.07 18.53, 12.5 13.42 C17.93 8.3, 29.63 2.45, 32.86 0.72 C36.09 -1, 31.89 2.24, 31.88 3.08" stroke="none" stroke-width="0" fill="#3c8cbf"></path><path d="M56.89 4.03 C63.64 6.36, 71.43 12.29, 75.41 18.26 C79.4 24.24, 80.8 32.72, 80.81 39.89 C80.83 47.06, 79.33 54.91, 75.49 61.26 C71.65 67.62, 64.32 74.91, 57.77 78.02 C51.23 81.13, 43.23 80.91, 36.22 79.94 C29.2 78.96, 21.4 76.78, 15.68 72.15 C9.96 67.53, 4.3 59.1, 1.88 52.19 C-0.53 45.28, -0.85 37.7, 1.17 30.7 C3.19 23.7, 8.4 15.25, 14.01 10.2 C19.62 5.16, 26.97 1.19, 34.84 0.43 C42.7 -0.32, 56.06 4.06, 61.21 5.69 C66.36 7.32, 65.82 9.61, 65.75 10.22 M26.82 2.26 C33.24 -0.37, 43.44 -0.26, 50.66 1.34 C57.89 2.94, 65.06 6.72, 70.18 11.87 C75.3 17.02, 80.15 24.71, 81.39 32.26 C82.62 39.8, 80.33 50.05, 77.59 57.12 C74.85 64.2, 70.84 70.75, 64.93 74.69 C59.02 78.64, 49.7 80.58, 42.11 80.8 C34.53 81.01, 25.52 79.45, 19.42 75.98 C13.32 72.5, 8.47 66.72, 5.5 59.94 C2.53 53.15, 0.86 42.83, 1.62 35.25 C2.38 27.67, 5.79 20.15, 10.06 14.43 C14.33 8.71, 24.1 2.78, 27.22 0.92 C30.33 -0.94, 28.61 2.52, 28.76 3.25" stroke="#ffffff" stroke-width="1" fill="none"></path></g><g stroke-linecap="round" transform="translate(305.59716455962416 661.4559786876864) rotate(0 23.103819822784885 23.002317449545842)"><path d="M24.82 0.07 C29.57 0.21, 36.28 3.09, 39.76 6.54 C43.24 10, 45.35 15.95, 45.69 20.81 C46.04 25.67, 44.52 31.71, 41.83 35.71 C39.15 39.71, 34.3 43.5, 29.6 44.81 C24.91 46.13, 18.18 45.61, 13.66 43.59 C9.15 41.58, 4.63 37.05, 2.5 32.72 C0.38 28.39, -0.33 22.35, 0.92 17.63 C2.16 12.9, 5.94 7.3, 9.97 4.39 C14 1.48, 22.49 0.82, 25.09 0.18 C27.7 -0.47, 25.59 0.15, 25.6 0.5 M26.5 0.5 C31.14 0.83, 36.55 4.35, 39.95 7.85 C43.35 11.35, 46.74 16.67, 46.93 21.5 C47.12 26.33, 44.14 32.85, 41.08 36.85 C38.01 40.85, 33.32 44.49, 28.53 45.49 C23.74 46.49, 16.88 45.07, 12.34 42.84 C7.79 40.61, 3.17 36.55, 1.26 32.11 C-0.66 27.67, -0.76 21, 0.84 16.2 C2.44 11.39, 6.72 5.93, 10.85 3.26 C14.98 0.59, 23.03 0.64, 25.64 0.17 C28.25 -0.3, 26.38 -0.03, 26.52 0.44" stroke="none" stroke-width="0" fill="#77b153"></path><path d="M21.87 0.2 C26.48 -0.47, 32.37 1.61, 36.31 4.42 C40.25 7.24, 44.31 12.26, 45.51 17.1 C46.72 21.94, 45.68 29.07, 43.55 33.47 C41.43 37.87, 37.14 41.55, 32.76 43.52 C28.37 45.49, 22.06 46.61, 17.26 45.29 C12.46 43.96, 6.84 39.62, 3.97 35.57 C1.09 31.53, -0.56 25.88, -0.01 21.01 C0.55 16.14, 3.47 9.86, 7.31 6.35 C11.15 2.84, 20.35 0.96, 23.05 -0.05 C25.75 -1.05, 23.6 -0.09, 23.51 0.32 M27.56 0.2 C32.14 0.92, 37.44 4.82, 40.53 8.71 C43.61 12.6, 46.1 18.71, 46.05 23.52 C46 28.33, 43.43 33.99, 40.23 37.59 C37.03 41.18, 31.79 44.18, 26.87 45.1 C21.95 46.02, 14.92 45.5, 10.73 43.1 C6.55 40.71, 3.27 35.5, 1.74 30.73 C0.22 25.96, -0.09 19.08, 1.58 14.47 C3.25 9.87, 7.33 5.33, 11.77 3.09 C16.21 0.86, 25.49 1.52, 28.23 1.07 C30.97 0.63, 28.3 0.23, 28.2 0.45" stroke="#ffffff" stroke-width="1" fill="none"></path></g><g stroke-linecap="round" transform="translate(261.6838544839726 649.4911044910973) rotate(0 13.97665916965775 13.605669863962419)"><path d="M11.73 0.12 C14.45 -0.59, 17.85 0.25, 20.36 1.62 C22.87 3, 25.58 5.67, 26.79 8.34 C28 11.02, 28.51 14.9, 27.61 17.68 C26.71 20.45, 23.98 23.44, 21.39 24.99 C18.8 26.53, 15.03 27.28, 12.06 26.95 C9.09 26.62, 5.54 25.16, 3.56 23 C1.59 20.84, 0.34 16.98, 0.2 13.99 C0.05 11, 0.8 7.4, 2.71 5.07 C4.63 2.74, 10.05 0.81, 11.71 -0.01 C13.37 -0.83, 12.54 -0.1, 12.68 0.15 M15.49 0.34 C18.43 0.37, 23 1.65, 25.04 3.71 C27.08 5.77, 27.62 9.68, 27.72 12.71 C27.83 15.74, 27.47 19.61, 25.69 21.9 C23.92 24.19, 20.17 25.72, 17.07 26.44 C13.97 27.15, 9.8 27.39, 7.08 26.17 C4.36 24.95, 1.83 21.93, 0.75 19.11 C-0.32 16.29, -0.22 12.11, 0.62 9.26 C1.46 6.42, 3.22 3.61, 5.79 2.05 C8.37 0.49, 14.33 0.08, 16.07 -0.12 C17.82 -0.32, 16.34 0.56, 16.28 0.87" stroke="none" stroke-width="0" fill="#77b153"></path><path d="M16.04 0.25 C18.8 0.48, 22.74 2.25, 24.67 4.54 C26.6 6.83, 27.58 11.11, 27.62 14 C27.67 16.88, 26.71 19.65, 24.92 21.85 C23.14 24.04, 19.9 26.63, 16.92 27.17 C13.93 27.7, 9.7 26.5, 7 25.08 C4.31 23.66, 1.7 21.36, 0.72 18.65 C-0.26 15.95, 0.02 11.66, 1.11 8.85 C2.21 6.03, 4.76 3.23, 7.31 1.78 C9.86 0.33, 14.81 0.31, 16.42 0.14 C18.04 -0.03, 16.91 0.54, 17 0.78 M11.17 0.28 C13.93 -0.28, 18.37 0.57, 21 1.95 C23.63 3.33, 25.89 5.93, 26.94 8.57 C27.98 11.22, 28.37 14.93, 27.28 17.82 C26.19 20.71, 22.96 24.34, 20.39 25.92 C17.82 27.5, 14.73 27.95, 11.85 27.3 C8.98 26.64, 5.16 24.27, 3.15 21.99 C1.14 19.72, -0.36 16.43, -0.21 13.65 C-0.07 10.88, 1.92 7.65, 4.03 5.33 C6.14 3.01, 11.07 0.59, 12.45 -0.27 C13.82 -1.14, 12.43 -0.06, 12.29 0.14" stroke="#ffffff" stroke-width="1" fill="none"></path></g><g stroke-linecap="round" transform="translate(276.8283845059535 712.1443842096866) rotate(0 17.969303475752042 17.379837841534197)"><path d="M17.45 -0.1 C21 -0.38, 26.09 1.26, 29.19 3.59 C32.3 5.92, 35.31 10.2, 36.08 13.88 C36.85 17.56, 35.75 22.4, 33.82 25.69 C31.89 28.97, 28.13 32.17, 24.51 33.59 C20.88 35.02, 15.72 35.44, 12.07 34.23 C8.43 33.02, 4.69 29.62, 2.65 26.33 C0.61 23.04, -0.72 18.23, -0.16 14.51 C0.39 10.79, 2.94 6.43, 6 3.99 C9.06 1.54, 16.03 0.43, 18.2 -0.17 C20.37 -0.77, 18.95 0.04, 19.01 0.38 M20.31 -0.66 C23.99 -0.65, 27.79 2.03, 30.49 4.78 C33.19 7.54, 36.14 12.2, 36.52 15.89 C36.9 19.58, 35.16 23.79, 32.77 26.92 C30.37 30.06, 25.95 33.61, 22.16 34.69 C18.38 35.78, 13.46 35.14, 10.04 33.44 C6.62 31.74, 3.32 27.91, 1.63 24.47 C-0.05 21.03, -1.13 16.38, -0.08 12.78 C0.97 9.18, 4.58 4.92, 7.93 2.88 C11.29 0.84, 18.11 0.92, 20.06 0.54 C22.01 0.17, 19.66 0.44, 19.63 0.65" stroke="none" stroke-width="0" fill="#77b153"></path><path d="M19.28 -0.26 C22.94 -0.16, 27.36 2.76, 30.16 5.32 C32.96 7.89, 35.54 11.46, 36.07 15.13 C36.6 18.79, 35.53 24.19, 33.33 27.3 C31.13 30.41, 26.68 32.73, 22.87 33.78 C19.06 34.83, 13.95 35.1, 10.48 33.61 C7.02 32.12, 3.67 28.25, 2.07 24.83 C0.48 21.4, 0.07 16.69, 0.89 13.08 C1.71 9.46, 3.77 5.27, 7.01 3.14 C10.25 1.01, 17.8 0.71, 20.33 0.31 C22.86 -0.1, 22.25 0.44, 22.2 0.7 M16.36 0.08 C20.04 -0.54, 24.91 0.58, 28.12 2.62 C31.32 4.67, 34.65 8.58, 35.6 12.35 C36.55 16.12, 35.42 21.72, 33.82 25.25 C32.22 28.78, 29.41 32.05, 25.98 33.5 C22.55 34.95, 17.06 34.94, 13.23 33.94 C9.39 32.95, 5.06 30.44, 2.97 27.52 C0.89 24.59, 0.19 20.22, 0.7 16.39 C1.21 12.57, 3.31 7.34, 6.03 4.57 C8.74 1.8, 15.3 0.55, 16.99 -0.24 C18.68 -1.03, 16.16 -0.53, 16.14 -0.16" stroke="#ffffff" stroke-width="1" fill="none"></path></g><g stroke-linecap="round" transform="translate(293.8079278008921 658.0528883932946) rotate(0 2.9326667171769714 2.9157496549704547)"><path d="M2.64 -0.27 C3.33 -0.37, 4.45 -0.05, 5.01 0.35 C5.56 0.74, 5.84 1.45, 5.96 2.09 C6.08 2.73, 6.03 3.57, 5.73 4.21 C5.43 4.85, 4.75 5.67, 4.16 5.94 C3.56 6.2, 2.84 6.05, 2.18 5.81 C1.52 5.58, 0.58 5.08, 0.18 4.51 C-0.22 3.95, -0.32 3.08, -0.2 2.44 C-0.08 1.79, 0.34 1.06, 0.88 0.65 C1.43 0.25, 2.69 0.1, 3.07 0.01 C3.44 -0.08, 3.14 0.11, 3.13 0.13 M2.93 -0.22 C3.52 -0.15, 4.86 0.36, 5.36 0.77 C5.85 1.18, 5.95 1.57, 5.91 2.24 C5.87 2.92, 5.51 4.22, 5.12 4.84 C4.74 5.45, 4.16 5.82, 3.6 5.92 C3.04 6.02, 2.4 5.74, 1.78 5.46 C1.15 5.17, 0.11 4.77, -0.14 4.21 C-0.4 3.65, -0.04 2.66, 0.23 2.11 C0.5 1.56, 1 1.24, 1.48 0.91 C1.96 0.59, 2.81 0.3, 3.13 0.16 C3.45 0.01, 3.44 0.07, 3.39 0.04" stroke="none" stroke-width="0" fill="#ffffff"></path><path d="M2.76 0.27 C3.38 0.23, 4.44 0.01, 5 0.39 C5.57 0.77, 6.08 1.93, 6.16 2.57 C6.23 3.2, 5.84 3.64, 5.45 4.2 C5.05 4.76, 4.37 5.7, 3.8 5.92 C3.24 6.15, 2.61 5.83, 2.07 5.55 C1.54 5.28, 0.98 4.85, 0.6 4.3 C0.21 3.75, -0.29 2.86, -0.24 2.26 C-0.19 1.67, 0.32 1.11, 0.91 0.73 C1.5 0.35, 2.96 0.08, 3.28 -0.03 C3.61 -0.15, 2.91 0.03, 2.85 0.04 M2.84 -0.39 C3.48 -0.48, 4.58 -0.22, 5.04 0.31 C5.49 0.83, 5.45 2.04, 5.57 2.77 C5.7 3.49, 6.06 4.19, 5.78 4.65 C5.5 5.12, 4.55 5.36, 3.88 5.55 C3.2 5.74, 2.24 5.94, 1.72 5.8 C1.2 5.67, 0.97 5.36, 0.77 4.73 C0.57 4.11, 0.41 2.76, 0.52 2.04 C0.62 1.33, 1.05 0.84, 1.42 0.44 C1.79 0.03, 2.45 -0.33, 2.74 -0.37 C3.03 -0.41, 3.19 0.13, 3.17 0.21" stroke="#ffffff" stroke-width="1" fill="none"></path></g><g stroke-linecap="round" transform="translate(303.27930729022887 661.8092248435167) rotate(0 2.9326667171769714 2.9157496549704547)"><path d="M3.13 -0.25 C3.78 -0.3, 4.43 0.01, 4.9 0.43 C5.38 0.84, 5.88 1.56, 6 2.26 C6.12 2.96, 5.93 4.04, 5.62 4.62 C5.31 5.2, 4.8 5.55, 4.15 5.74 C3.51 5.92, 2.4 5.95, 1.74 5.72 C1.08 5.49, 0.51 4.91, 0.22 4.36 C-0.08 3.8, -0.2 2.99, -0.04 2.39 C0.12 1.79, 0.65 1.14, 1.16 0.75 C1.68 0.37, 2.74 0.21, 3.05 0.07 C3.37 -0.07, 3.05 -0.18, 3.03 -0.09 M2.89 0.03 C3.51 -0.12, 4.08 -0.27, 4.5 0.1 C4.92 0.48, 5.26 1.62, 5.42 2.3 C5.59 2.97, 5.66 3.66, 5.48 4.17 C5.3 4.67, 4.94 5.05, 4.34 5.31 C3.75 5.57, 2.5 5.86, 1.92 5.74 C1.33 5.62, 1.09 5.02, 0.82 4.6 C0.56 4.18, 0.33 3.77, 0.32 3.19 C0.31 2.62, 0.36 1.7, 0.77 1.17 C1.18 0.64, 2.53 0.25, 2.78 0.02 C3.03 -0.21, 2.28 -0.33, 2.27 -0.2" stroke="none" stroke-width="0" fill="#ffffff"></path><path d="M2.79 -0.31 C3.47 -0.43, 4.42 0.24, 4.91 0.61 C5.4 0.98, 5.65 1.29, 5.75 1.91 C5.85 2.54, 5.75 3.77, 5.52 4.36 C5.29 4.95, 4.91 5.23, 4.39 5.46 C3.88 5.68, 3.13 5.86, 2.44 5.71 C1.75 5.55, 0.7 5.01, 0.26 4.52 C-0.17 4.03, -0.3 3.39, -0.16 2.78 C-0.03 2.17, 0.65 1.31, 1.09 0.85 C1.53 0.38, 2.22 0.16, 2.48 -0.01 C2.74 -0.19, 2.6 -0.24, 2.65 -0.2 M3.11 -0.42 C3.69 -0.34, 4.06 0.47, 4.57 0.98 C5.08 1.49, 6.02 2.1, 6.17 2.64 C6.32 3.19, 5.87 3.72, 5.47 4.25 C5.08 4.79, 4.3 5.53, 3.78 5.83 C3.25 6.13, 2.82 6.37, 2.33 6.07 C1.84 5.78, 1.17 4.71, 0.84 4.06 C0.52 3.42, 0.37 2.82, 0.37 2.2 C0.36 1.57, 0.34 0.64, 0.8 0.3 C1.25 -0.04, 2.82 0.22, 3.11 0.15 C3.41 0.07, 2.6 -0.24, 2.57 -0.15" stroke="#ffffff" stroke-width="1" fill="none"></path></g><g stroke-linecap="round" transform="translate(272.3306919730271 679.7148698907213) rotate(0 2.9326667171769714 2.9157496549704547)"><path d="M2.69 -0.17 C3.26 -0.26, 4.17 -0.03, 4.69 0.39 C5.21 0.81, 5.64 1.72, 5.83 2.35 C6.01 2.97, 6.08 3.6, 5.78 4.13 C5.48 4.66, 4.64 5.27, 4.02 5.53 C3.41 5.78, 2.67 5.83, 2.09 5.67 C1.51 5.52, 0.87 5.07, 0.55 4.59 C0.23 4.12, 0.13 3.41, 0.19 2.82 C0.25 2.22, 0.52 1.52, 0.94 1.03 C1.35 0.54, 2.4 -0.03, 2.69 -0.13 C2.99 -0.23, 2.79 0.34, 2.72 0.4 M2.78 -0.3 C3.26 -0.32, 3.9 0.44, 4.37 0.89 C4.83 1.34, 5.38 1.89, 5.58 2.42 C5.77 2.94, 5.87 3.52, 5.55 4.04 C5.23 4.56, 4.21 5.28, 3.67 5.53 C3.12 5.79, 2.77 5.67, 2.3 5.56 C1.82 5.45, 1.2 5.34, 0.83 4.87 C0.46 4.41, 0.01 3.46, 0.07 2.78 C0.14 2.1, 0.8 1.32, 1.21 0.81 C1.62 0.3, 2.22 -0.24, 2.52 -0.29 C2.82 -0.34, 2.89 0.41, 2.99 0.49" stroke="none" stroke-width="0" fill="#ffffff"></path><path d="M3.66 0.14 C4.23 0.2, 4.75 0.26, 5.11 0.75 C5.46 1.23, 5.72 2.41, 5.78 3.06 C5.83 3.7, 5.77 4.17, 5.43 4.62 C5.1 5.07, 4.47 5.6, 3.78 5.73 C3.09 5.86, 1.89 5.66, 1.27 5.39 C0.65 5.12, 0.19 4.66, 0.04 4.1 C-0.1 3.53, 0.22 2.6, 0.4 1.99 C0.59 1.38, 0.68 0.8, 1.16 0.43 C1.64 0.06, 2.88 -0.16, 3.26 -0.23 C3.64 -0.3, 3.44 -0.04, 3.45 0.03 M2.3 0.31 C2.91 0.31, 4.28 0.41, 4.86 0.68 C5.43 0.95, 5.63 1.33, 5.74 1.91 C5.85 2.5, 5.67 3.54, 5.5 4.21 C5.32 4.88, 5.15 5.72, 4.7 5.93 C4.24 6.14, 3.38 5.7, 2.75 5.46 C2.12 5.22, 1.42 5, 0.92 4.49 C0.42 3.98, -0.26 2.98, -0.26 2.41 C-0.26 1.84, 0.54 1.52, 0.94 1.09 C1.35 0.65, 1.91 -0.08, 2.18 -0.18 C2.45 -0.29, 2.5 0.46, 2.55 0.47" stroke="#ffffff" stroke-width="1" fill="none"></path></g><g stroke-linecap="round" transform="translate(282.29409933751833 706.5561146608036) rotate(0 2.9326667171769714 2.9157496549704547)"><path d="M2.76 -0.03 C3.34 -0.06, 4.1 0.42, 4.62 0.79 C5.14 1.15, 5.74 1.62, 5.86 2.16 C5.99 2.71, 5.66 3.53, 5.36 4.07 C5.06 4.61, 4.58 5.15, 4.05 5.41 C3.53 5.67, 2.76 5.77, 2.22 5.65 C1.68 5.53, 1.13 5.16, 0.79 4.69 C0.45 4.23, 0.16 3.5, 0.18 2.85 C0.2 2.2, 0.47 1.21, 0.9 0.79 C1.32 0.37, 2.46 0.48, 2.71 0.34 C2.95 0.21, 2.38 -0.07, 2.34 -0.03 M2.64 0.34 C3.2 0.39, 4.08 0.58, 4.61 0.89 C5.14 1.21, 5.73 1.68, 5.8 2.25 C5.86 2.82, 5.29 3.78, 5.01 4.32 C4.73 4.86, 4.56 5.22, 4.1 5.49 C3.65 5.77, 2.87 6.13, 2.26 5.98 C1.65 5.82, 0.77 5.13, 0.46 4.54 C0.14 3.94, 0.3 3.09, 0.36 2.4 C0.43 1.71, 0.37 0.72, 0.84 0.39 C1.32 0.06, 2.78 0.5, 3.19 0.43 C3.6 0.36, 3.34 -0.08, 3.29 -0.03" stroke="none" stroke-width="0" fill="#ffffff"></path><path d="M2.46 -0.17 C2.97 -0.28, 3.77 0.32, 4.34 0.66 C4.92 1, 5.63 1.33, 5.89 1.87 C6.15 2.41, 6.21 3.33, 5.9 3.91 C5.6 4.49, 4.69 5.03, 4.08 5.36 C3.46 5.68, 2.74 5.97, 2.21 5.86 C1.69 5.76, 1.33 5.23, 0.92 4.73 C0.52 4.23, -0.16 3.52, -0.21 2.86 C-0.27 2.19, 0.13 1.23, 0.6 0.75 C1.07 0.27, 2.25 0.09, 2.6 -0.04 C2.94 -0.17, 2.69 -0.11, 2.65 -0.04 M2.86 0.25 C3.5 0.06, 4.04 -0.01, 4.49 0.31 C4.95 0.63, 5.31 1.5, 5.58 2.18 C5.84 2.87, 6.2 3.93, 6.07 4.43 C5.93 4.93, 5.34 5, 4.77 5.19 C4.2 5.38, 3.38 5.71, 2.65 5.57 C1.91 5.43, 0.77 4.78, 0.36 4.34 C-0.05 3.91, 0.17 3.56, 0.17 2.96 C0.17 2.37, -0.02 1.18, 0.37 0.76 C0.76 0.33, 2.17 0.6, 2.51 0.42 C2.85 0.24, 2.41 -0.27, 2.4 -0.33" stroke="#ffffff" stroke-width="1" fill="none"></path></g><g stroke-linecap="round" transform="translate(276.9565782440078 698.3640872301833) rotate(0 2.9326667171769714 2.9157496549704547)"><path d="M2.75 0.34 C3.32 0.27, 4.26 0.32, 4.72 0.62 C5.17 0.93, 5.37 1.6, 5.48 2.16 C5.59 2.73, 5.6 3.48, 5.38 4.02 C5.15 4.57, 4.63 5.14, 4.13 5.43 C3.64 5.72, 2.96 5.87, 2.39 5.75 C1.83 5.63, 1.11 5.22, 0.73 4.69 C0.35 4.15, 0.09 3.12, 0.13 2.54 C0.16 1.96, 0.56 1.64, 0.93 1.2 C1.31 0.77, 2.09 0.06, 2.37 -0.09 C2.65 -0.23, 2.54 0.28, 2.6 0.35 M2.43 0.23 C3.07 0.05, 4.08 0.05, 4.56 0.36 C5.03 0.66, 5.08 1.48, 5.28 2.08 C5.49 2.68, 5.89 3.32, 5.77 3.95 C5.64 4.58, 5.11 5.53, 4.53 5.86 C3.95 6.18, 2.88 6.11, 2.27 5.9 C1.66 5.69, 1.29 5.19, 0.88 4.6 C0.47 4.02, -0.22 2.95, -0.19 2.4 C-0.15 1.86, 0.56 1.73, 1.1 1.31 C1.63 0.9, 2.74 0.06, 3 -0.08 C3.25 -0.21, 2.67 0.39, 2.62 0.5" stroke="none" stroke-width="0" fill="#ffffff"></path><path d="M3.01 0.25 C3.64 0.27, 4.61 0.32, 5.12 0.7 C5.63 1.08, 6.08 1.92, 6.07 2.53 C6.07 3.15, 5.51 3.87, 5.1 4.41 C4.69 4.95, 4.12 5.59, 3.61 5.79 C3.1 5.98, 2.63 5.82, 2.04 5.56 C1.46 5.3, 0.45 4.81, 0.1 4.21 C-0.24 3.62, -0.22 2.61, -0.03 1.99 C0.15 1.37, 0.69 0.86, 1.22 0.52 C1.75 0.17, 2.87 -0.05, 3.15 -0.1 C3.43 -0.16, 2.98 0.14, 2.92 0.18 M3.22 -0.12 C3.74 -0.11, 4.37 0.5, 4.88 1.04 C5.39 1.58, 6.12 2.56, 6.27 3.11 C6.42 3.65, 6.16 3.91, 5.78 4.31 C5.4 4.72, 4.72 5.4, 3.99 5.54 C3.26 5.68, 2 5.39, 1.41 5.18 C0.81 4.96, 0.71 4.81, 0.43 4.27 C0.15 3.73, -0.41 2.49, -0.27 1.93 C-0.14 1.37, 0.7 1.29, 1.26 0.9 C1.82 0.51, 2.78 -0.22, 3.08 -0.4 C3.39 -0.58, 3.16 -0.37, 3.11 -0.18" stroke="#ffffff" stroke-width="1" fill="none"></path></g><g stroke-linecap="round" transform="translate(273.633582339948 689.2793280452515) rotate(0 2.9326667171769714 2.9157496549704547)"><path d="M2.98 0.12 C3.51 0.01, 4.04 0.31, 4.47 0.66 C4.91 1.02, 5.42 1.65, 5.58 2.23 C5.74 2.82, 5.67 3.62, 5.44 4.19 C5.21 4.75, 4.74 5.37, 4.2 5.63 C3.66 5.9, 2.79 5.98, 2.19 5.75 C1.58 5.53, 0.9 4.78, 0.56 4.29 C0.21 3.8, 0.11 3.43, 0.13 2.82 C0.15 2.21, 0.22 1.06, 0.66 0.64 C1.1 0.22, 2.37 0.38, 2.75 0.29 C3.14 0.2, 2.96 0.13, 2.95 0.1 M3.25 -0.13 C3.8 -0.14, 4.13 0.42, 4.59 0.87 C5.05 1.32, 5.85 1.9, 6.02 2.58 C6.19 3.26, 6 4.41, 5.61 4.97 C5.22 5.52, 4.28 5.82, 3.67 5.91 C3.06 6, 2.55 5.86, 1.94 5.5 C1.34 5.15, 0.31 4.27, 0.05 3.78 C-0.21 3.28, 0.12 3.08, 0.39 2.51 C0.66 1.95, 1.2 0.73, 1.68 0.39 C2.16 0.05, 2.97 0.46, 3.24 0.45 C3.51 0.44, 3.32 0.43, 3.3 0.33" stroke="none" stroke-width="0" fill="#ffffff"></path><path d="M2.81 -0.07 C3.45 -0.22, 4.36 0.12, 4.8 0.46 C5.24 0.81, 5.35 1.39, 5.46 2.01 C5.57 2.63, 5.6 3.6, 5.44 4.18 C5.28 4.76, 5.05 5.24, 4.48 5.5 C3.91 5.76, 2.69 5.91, 2.02 5.72 C1.34 5.54, 0.78 4.88, 0.45 4.37 C0.13 3.86, -0.01 3.25, 0.06 2.65 C0.12 2.05, 0.43 1.2, 0.83 0.78 C1.23 0.36, 2.15 0.27, 2.43 0.12 C2.7 -0.03, 2.39 -0.18, 2.47 -0.11 M3 0.18 C3.67 0.28, 4.84 0.89, 5.39 1.25 C5.94 1.6, 6.26 1.81, 6.31 2.32 C6.36 2.84, 6.15 3.85, 5.68 4.35 C5.2 4.86, 4.1 5.12, 3.47 5.35 C2.84 5.58, 2.49 5.95, 1.9 5.72 C1.31 5.49, 0.22 4.5, -0.09 3.98 C-0.39 3.45, -0.12 3.23, 0.08 2.59 C0.27 1.95, 0.59 0.61, 1.09 0.13 C1.58 -0.34, 2.78 -0.3, 3.05 -0.24 C3.32 -0.18, 2.78 0.37, 2.73 0.5" stroke="#ffffff" stroke-width="1" fill="none"></path></g><g stroke-linecap="round" transform="translate(314.8304971119363 717.0589787480347) rotate(0 2.9326667171769714 2.9157496549704547)"><path d="M3.13 0.07 C3.66 0.1, 4.49 0.47, 4.93 0.92 C5.38 1.37, 5.72 2.13, 5.8 2.77 C5.87 3.41, 5.75 4.26, 5.39 4.77 C5.03 5.29, 4.28 5.76, 3.65 5.85 C3.02 5.94, 2.18 5.57, 1.62 5.31 C1.05 5.04, 0.58 4.85, 0.29 4.27 C-0.01 3.7, -0.33 2.45, -0.16 1.85 C0.01 1.26, 0.69 0.99, 1.29 0.7 C1.89 0.4, 3.12 0.22, 3.46 0.09 C3.8 -0.03, 3.28 -0.09, 3.31 -0.07 M2.68 -0.03 C3.3 -0.03, 4.55 0.17, 5.13 0.66 C5.72 1.16, 6.12 2.26, 6.17 2.94 C6.22 3.61, 5.77 4.25, 5.42 4.71 C5.06 5.17, 4.7 5.61, 4.05 5.7 C3.41 5.8, 2.12 5.46, 1.54 5.28 C0.95 5.1, 0.74 5.14, 0.56 4.62 C0.38 4.09, 0.35 2.72, 0.45 2.11 C0.56 1.5, 0.74 1.29, 1.19 0.98 C1.65 0.67, 2.88 0.49, 3.18 0.26 C3.49 0.03, 3.02 -0.36, 3 -0.4" stroke="none" stroke-width="0" fill="#ffffff"></path><path d="M3.53 -0.01 C4.05 0.02, 4.43 0.35, 4.79 0.83 C5.15 1.31, 5.57 2.22, 5.69 2.85 C5.81 3.49, 5.92 4.16, 5.53 4.64 C5.14 5.12, 4.05 5.64, 3.37 5.74 C2.7 5.84, 2 5.54, 1.49 5.25 C0.97 4.95, 0.5 4.53, 0.28 3.98 C0.05 3.43, 0.01 2.51, 0.14 1.94 C0.27 1.38, 0.6 0.92, 1.09 0.58 C1.57 0.23, 2.65 -0.1, 3.06 -0.14 C3.47 -0.19, 3.5 0.24, 3.57 0.32 M3.22 0.42 C3.91 0.28, 4.69 0.03, 5.17 0.31 C5.66 0.58, 6.1 1.49, 6.12 2.08 C6.13 2.68, 5.59 3.28, 5.27 3.89 C4.96 4.5, 4.82 5.49, 4.22 5.76 C3.62 6.02, 2.3 5.64, 1.67 5.49 C1.04 5.34, 0.74 5.43, 0.45 4.87 C0.15 4.31, -0.17 2.84, -0.1 2.12 C-0.04 1.39, 0.44 0.8, 0.85 0.52 C1.27 0.24, 2.13 0.47, 2.39 0.43 C2.65 0.4, 2.4 0.27, 2.42 0.3" stroke="#ffffff" stroke-width="1" fill="none"></path></g><g stroke-linecap="round" transform="translate(321.1710120269353 710.1981701865068) rotate(0 2.9326667171769714 2.9157496549704547)"><path d="M2.88 -0.09 C3.51 -0.12, 4.35 0.24, 4.88 0.68 C5.4 1.13, 5.92 1.93, 6.03 2.59 C6.15 3.24, 5.92 4.09, 5.56 4.59 C5.2 5.08, 4.51 5.34, 3.89 5.56 C3.28 5.78, 2.52 6.16, 1.87 5.92 C1.22 5.68, 0.31 4.69, -0.01 4.13 C-0.33 3.56, -0.27 3.12, -0.07 2.53 C0.13 1.95, 0.66 1.07, 1.17 0.62 C1.68 0.17, 2.6 -0.06, 2.99 -0.17 C3.38 -0.29, 3.45 -0.13, 3.5 -0.05 M2.95 -0.16 C3.67 -0.16, 4.54 0.48, 5.03 0.91 C5.51 1.34, 5.71 1.87, 5.85 2.43 C5.99 2.98, 6.19 3.75, 5.86 4.23 C5.53 4.71, 4.46 4.99, 3.87 5.3 C3.29 5.62, 2.84 6.28, 2.33 6.13 C1.83 5.98, 1.22 4.93, 0.83 4.4 C0.44 3.88, -0.02 3.54, 0 2.98 C0.02 2.42, 0.54 1.6, 0.98 1.03 C1.42 0.45, 2.35 -0.26, 2.65 -0.46 C2.95 -0.67, 2.66 -0.25, 2.76 -0.19" stroke="none" stroke-width="0" fill="#ffffff"></path><path d="M2.52 -0.1 C3.05 -0.14, 3.96 0.29, 4.55 0.69 C5.14 1.08, 5.93 1.66, 6.06 2.25 C6.19 2.85, 5.67 3.73, 5.32 4.24 C4.97 4.76, 4.48 5.12, 3.94 5.35 C3.41 5.58, 2.68 5.79, 2.1 5.63 C1.52 5.47, 0.85 4.87, 0.47 4.37 C0.08 3.87, -0.27 3.27, -0.23 2.64 C-0.2 2.01, 0.12 0.99, 0.67 0.59 C1.23 0.19, 2.68 0.32, 3.09 0.23 C3.5 0.14, 3.18 0.07, 3.13 0.07 M3.56 -0.29 C4.14 -0.4, 4.92 0.18, 5.26 0.59 C5.6 1.01, 5.53 1.52, 5.58 2.2 C5.63 2.88, 5.92 4.11, 5.55 4.66 C5.19 5.21, 4.03 5.28, 3.4 5.5 C2.77 5.72, 2.3 6.27, 1.76 5.98 C1.23 5.7, 0.48 4.48, 0.18 3.81 C-0.11 3.15, -0.11 2.46, -0.02 2 C0.08 1.53, 0.31 1.3, 0.77 1.01 C1.22 0.72, 2.38 0.35, 2.72 0.24 C3.05 0.14, 2.75 0.33, 2.8 0.36" stroke="#ffffff" stroke-width="1" fill="none"></path></g><g stroke-linecap="round" transform="translate(276.461096288715 711.9473944186595) rotate(0 17.969303475752042 17.379837841534197)"><path d="M18.32 -0.17 C22.08 -0.27, 27.2 1.85, 30.14 4.36 C33.09 6.88, 35.45 11.26, 36.01 14.9 C36.56 18.54, 35.51 22.98, 33.48 26.22 C31.45 29.46, 27.59 33.15, 23.83 34.34 C20.07 35.54, 14.56 34.78, 10.92 33.41 C7.27 32.04, 3.73 29.36, 1.96 26.12 C0.2 22.89, -0.4 17.77, 0.35 14 C1.1 10.23, 3.33 5.87, 6.46 3.51 C9.6 1.15, 17 0.34, 19.15 -0.18 C21.31 -0.7, 19.49 0.12, 19.39 0.37 M18.08 0.48 C21.7 0.26, 26.32 1.82, 29.32 4.07 C32.32 6.32, 35.4 10.44, 36.08 13.98 C36.76 17.52, 35.29 21.93, 33.42 25.31 C31.55 28.68, 28.31 32.83, 24.86 34.23 C21.41 35.63, 16.44 34.89, 12.72 33.69 C9.01 32.49, 4.64 30.12, 2.56 27.02 C0.49 23.92, -0.29 19, 0.27 15.09 C0.83 11.19, 3.05 6.18, 5.93 3.6 C8.8 1.02, 15.49 0.26, 17.54 -0.38 C19.59 -1.02, 18.3 -0.73, 18.22 -0.26" stroke="none" stroke-width="0" fill="#77b153"></path><path d="M17.24 0.13 C21.03 -0.17, 26.55 1.43, 29.55 3.73 C32.55 6.02, 34.59 10.29, 35.26 13.89 C35.93 17.48, 35.37 22.02, 33.6 25.28 C31.82 28.54, 28.18 32.05, 24.63 33.45 C21.07 34.85, 16.01 34.83, 12.28 33.7 C8.55 32.56, 4.34 29.81, 2.26 26.62 C0.18 23.43, -0.91 18.2, -0.22 14.55 C0.46 10.9, 3.22 7.13, 6.35 4.7 C9.49 2.28, 16.47 0.76, 18.6 0.01 C20.72 -0.73, 19.11 -0.11, 19.09 0.25 M22.21 0.09 C25.66 0.59, 29.42 3.12, 31.75 6.14 C34.08 9.17, 36.35 14.47, 36.18 18.23 C36.01 22, 33.36 25.89, 30.73 28.72 C28.11 31.54, 24.17 34.72, 20.42 35.18 C16.67 35.64, 11.51 33.62, 8.23 31.48 C4.95 29.34, 1.98 25.68, 0.73 22.35 C-0.53 19.02, -0.68 14.82, 0.7 11.49 C2.08 8.16, 5.55 4.16, 8.98 2.38 C12.41 0.6, 19.2 1.07, 21.29 0.83 C23.38 0.6, 21.4 0.7, 21.53 0.96" stroke="#ffffff" stroke-width="1" fill="none"></path></g><g stroke-linecap="round" transform="translate(305.99076820696257 661.140569461214) rotate(0 23.103819822784885 23.002317449545842)"><path d="M21.75 0.07 C26.48 -0.51, 32.94 1.63, 36.93 4.48 C40.92 7.34, 44.51 12.34, 45.69 17.19 C46.88 22.03, 46.3 29.11, 44.03 33.55 C41.75 38, 36.62 41.86, 32.04 43.86 C27.46 45.86, 21.22 46.87, 16.54 45.55 C11.86 44.24, 6.74 40.15, 3.95 35.95 C1.17 31.75, -0.75 25.29, -0.18 20.34 C0.39 15.4, 3.64 9.66, 7.38 6.27 C11.12 2.88, 19.74 1.05, 22.26 0 C24.78 -1.04, 22.51 -0.42, 22.48 0 M21.33 0.31 C25.99 -0.45, 32.99 1.48, 36.96 4.22 C40.93 6.96, 43.93 11.86, 45.17 16.74 C46.4 21.62, 46.36 29, 44.38 33.5 C42.4 38.01, 37.85 41.72, 33.28 43.77 C28.71 45.83, 21.8 47.04, 16.95 45.82 C12.09 44.6, 6.99 40.73, 4.15 36.45 C1.31 32.17, -0.55 25.18, -0.11 20.15 C0.34 15.11, 3.16 9.7, 6.82 6.25 C10.48 2.8, 19.54 0.3, 21.85 -0.54 C24.17 -1.38, 20.85 0.65, 20.7 1.19" stroke="none" stroke-width="0" fill="#77b153"></path><path d="M21.73 0.01 C26.39 -0.66, 32.31 1.46, 36.24 4.27 C40.17 7.08, 44.03 12.13, 45.32 16.89 C46.62 21.66, 46.12 28.37, 44.01 32.85 C41.9 37.33, 37.24 41.71, 32.66 43.79 C28.07 45.87, 21.34 46.66, 16.5 45.32 C11.66 43.98, 6.3 39.77, 3.61 35.73 C0.93 31.69, -0.19 25.95, 0.4 21.09 C0.99 16.23, 3.62 10.11, 7.16 6.57 C10.71 3.04, 19.12 0.84, 21.67 -0.11 C24.22 -1.05, 22.34 0.41, 22.45 0.89 M19.3 -0.31 C23.86 -1.2, 31.24 0.99, 35.43 3.61 C39.62 6.23, 42.92 10.66, 44.44 15.39 C45.97 20.13, 46.33 27.49, 44.58 32.02 C42.83 36.55, 38.3 40.4, 33.93 42.59 C29.56 44.78, 23.27 45.94, 18.35 45.17 C13.43 44.4, 7.56 41.7, 4.4 37.97 C1.25 34.23, -0.73 27.72, -0.57 22.76 C-0.41 17.8, 2 11.92, 5.36 8.21 C8.71 4.5, 17.04 1.68, 19.56 0.48 C22.08 -0.72, 20.37 0.76, 20.49 1" stroke="#ffffff" stroke-width="1" fill="none"></path></g><g stroke-linecap="round" transform="translate(262.2180577149825 649.4512554112331) rotate(0 13.72294816469855 13.674653330639273)"><path d="M12.82 0.15 C15.57 -0.3, 19.41 0.51, 21.8 2.26 C24.18 4.01, 26.49 7.81, 27.13 10.65 C27.78 13.5, 26.97 16.69, 25.66 19.33 C24.35 21.98, 21.86 25.24, 19.28 26.51 C16.69 27.78, 12.99 27.83, 10.13 26.94 C7.28 26.06, 3.78 23.67, 2.16 21.22 C0.54 18.77, 0.05 15.13, 0.4 12.26 C0.75 9.38, 2.18 6.08, 4.26 3.96 C6.33 1.85, 11.32 0.14, 12.84 -0.45 C14.37 -1.04, 13.38 0.08, 13.39 0.44 M16.37 0.14 C19.09 0.29, 21.88 1.94, 23.8 4.27 C25.71 6.59, 27.66 11.11, 27.84 14.09 C28.03 17.08, 26.85 19.88, 24.92 22.15 C23 24.43, 19.26 27.1, 16.29 27.74 C13.32 28.38, 9.71 27.65, 7.11 26 C4.51 24.36, 1.77 20.72, 0.7 17.86 C-0.37 15, -0.4 11.58, 0.7 8.82 C1.8 6.07, 4.85 2.66, 7.28 1.33 C9.72 0, 13.96 0.92, 15.31 0.83 C16.66 0.74, 15.26 0.7, 15.39 0.79" stroke="none" stroke-width="0" fill="#77b153"></path><path d="M14.23 -0.01 C16.94 -0.07, 20.8 1.35, 23 3.35 C25.2 5.35, 27.06 9.06, 27.43 12.01 C27.8 14.96, 26.89 18.56, 25.19 21.05 C23.49 23.54, 20.14 26.13, 17.25 26.95 C14.36 27.77, 10.43 27.1, 7.84 25.96 C5.26 24.83, 2.94 22.71, 1.73 20.13 C0.53 17.56, -0.02 13.44, 0.6 10.5 C1.21 7.57, 3.01 4.22, 5.42 2.55 C7.83 0.87, 13.37 0.76, 15.07 0.47 C16.78 0.18, 15.75 0.6, 15.65 0.82 M12.61 0.29 C15.34 -0.12, 18.5 0.35, 20.88 2.06 C23.27 3.78, 26.06 7.79, 26.92 10.56 C27.78 13.32, 27.27 16.16, 26.04 18.67 C24.81 21.19, 22.25 24.14, 19.53 25.62 C16.81 27.1, 12.64 28.17, 9.72 27.57 C6.8 26.97, 3.69 24.43, 2 22.02 C0.32 19.6, -0.7 16.04, -0.41 13.1 C-0.11 10.16, 1.52 6.48, 3.77 4.36 C6.02 2.23, 11.61 1.13, 13.09 0.36 C14.57 -0.41, 12.73 -0.38, 12.65 -0.29" stroke="#ffffff" stroke-width="1" fill="none"></path></g><g stroke-linecap="round"><g transform="translate(324.1403153150741 610.6377341671684) rotate(0 25.751953125 42.00219333371149)"><path d="M-0.74 -0.65 C7.84 5.17, 46.22 21.26, 51.34 35.21 C56.46 49.16, 33.38 75.08, 29.99 83.04 M1.08 1.62 C9.5 7.04, 45.65 19.58, 50.31 33.29 C54.97 46.99, 32.14 75.48, 29.02 83.86" stroke="#1e1e1e" stroke-width="2" fill="none"></path></g><g transform="translate(324.1403153150741 610.6377341671684) rotate(0 25.751953125 42.00219333371149)"><path d="M33.23 59.21 C30.98 66.06, 31.49 72.81, 29.02 83.86 M33.23 59.21 C32.55 64.41, 31.34 70.13, 29.02 83.86" stroke="#1e1e1e" stroke-width="2" fill="none"></path></g><g transform="translate(324.1403153150741 610.6377341671684) rotate(0 25.751953125 42.00219333371149)"><path d="M48.08 67.68 C41.52 71.98, 37.73 76.29, 29.02 83.86 M48.08 67.68 C44.09 70.89, 39.62 74.75, 29.02 83.86" stroke="#1e1e1e" stroke-width="2" fill="none"></path></g></g><mask></mask><g stroke-linecap="round"><g transform="translate(323.1754715650741 503.90335916716845) rotate(0 20.484375 44.94140625)"><path d="M-0.05 0.2 C6.73 7.51, 41.25 30.29, 41.58 45.07 C41.9 59.84, 8.46 81.23, 1.91 88.82 M-1.54 -0.75 C5.06 7.29, 40.48 31.62, 40.95 46.67 C41.42 61.73, 7.63 82.62, 1.28 89.58" stroke="#1e1e1e" stroke-width="2" fill="none"></path></g><g transform="translate(323.1754715650741 503.90335916716845) rotate(0 20.484375 44.94140625)"><path d="M13.92 68.01 C9.74 77.08, 4.9 84.59, 1.28 89.58 M13.92 68.01 C11.6 73.49, 9.12 76.64, 1.28 89.58" stroke="#1e1e1e" stroke-width="2" fill="none"></path></g><g transform="translate(323.1754715650741 503.90335916716845) rotate(0 20.484375 44.94140625)"><path d="M24.83 81.18 C16.44 85.32, 7.52 87.91, 1.28 89.58 M24.83 81.18 C20.13 83.93, 15.34 84.3, 1.28 89.58" stroke="#1e1e1e" stroke-width="2" fill="none"></path></g></g><mask></mask><g stroke-linecap="round"><g transform="translate(321.8981278150741 302.71195291716845) rotate(0 21.1640625 55.572265625)"><path d="M0.04 -0.49 C6.83 8.82, 40.16 36.5, 41.78 55.01 C43.41 73.53, 15.13 101.19, 9.79 110.6 M-1.41 -1.79 C5.1 7.77, 38.87 37.49, 40.55 56.4 C42.23 75.3, 13.84 102.24, 8.68 111.63" stroke="#1e1e1e" stroke-width="2" fill="none"></path></g><g transform="translate(321.8981278150741 302.71195291716845) rotate(0 21.1640625 55.572265625)"><path d="M16.06 87.74 C12.25 95.97, 9.75 104.94, 8.68 111.63 M16.06 87.74 C13.28 94.38, 12.76 99.12, 8.68 111.63" stroke="#1e1e1e" stroke-width="2" fill="none"></path></g><g transform="translate(321.8981278150741 302.71195291716845) rotate(0 21.1640625 55.572265625)"><path d="M29.69 98.07 C20.74 102.36, 13.03 107.38, 8.68 111.63 M29.69 98.07 C23.5 102.11, 19.51 104.22, 8.68 111.63" stroke="#1e1e1e" stroke-width="2" fill="none"></path></g></g><mask></mask><g stroke-linecap="round"><g transform="translate(326.8746903150741 415.90335916716845) rotate(0 21.5546875 44.947265625)"><path d="M0.49 0.16 C8.54 8.18, 48.84 32.56, 48.03 47.51 C47.22 62.45, 4.22 82.81, -4.38 89.82 M-0.72 -0.8 C7.27 7.45, 48.27 33.53, 47.51 48.85 C46.75 64.16, 3.14 84.16, -5.28 91.11" stroke="#1e1e1e" stroke-width="2" fill="none"></path></g><g transform="translate(326.8746903150741 415.90335916716845) rotate(0 21.5546875 44.947265625)"><path d="M10.17 71.45 C6.06 78.3, 0.89 81.96, -5.28 91.11 M10.17 71.45 C6.34 76.95, 1.13 83.46, -5.28 91.11" stroke="#1e1e1e" stroke-width="2" fill="none"></path></g><g transform="translate(326.8746903150741 415.90335916716845) rotate(0 21.5546875 44.947265625)"><path d="M19.19 85.98 C12.66 88.84, 4.99 88.48, -5.28 91.11 M19.19 85.98 C12.64 87.18, 4.78 89.41, -5.28 91.11" stroke="#1e1e1e" stroke-width="2" fill="none"></path></g></g><mask></mask><g stroke-linecap="round"><g transform="translate(55.472346565074076 689.7314841671684) rotate(0 -12.3125 -45.505859375)"><path d="M1.14 0.76 C-3.36 -5.69, -27.66 -24.41, -27.46 -39.78 C-27.27 -55.14, -2.7 -83.1, 2.3 -91.44 M0.28 0.12 C-4.33 -6.61, -28.49 -26.53, -28.34 -41.61 C-28.19 -56.68, -3.96 -81.99, 1.18 -90.35" stroke="#1e1e1e" stroke-width="2" fill="none"></path></g><g transform="translate(55.472346565074076 689.7314841671684) rotate(0 -12.3125 -45.505859375)"><path d="M-6.2 -66.47 C-2.79 -72.53, -1.21 -80.13, 1.18 -90.35 M-6.2 -66.47 C-3.47 -73.1, -2.52 -79.87, 1.18 -90.35" stroke="#1e1e1e" stroke-width="2" fill="none"></path></g><g transform="translate(55.472346565074076 689.7314841671684) rotate(0 -12.3125 -45.505859375)"><path d="M-19.82 -76.8 C-12.95 -80.3, -7.82 -85.2, 1.18 -90.35 M-19.82 -76.8 C-13.54 -80.84, -8.99 -84.87, 1.18 -90.35" stroke="#1e1e1e" stroke-width="2" fill="none"></path></g></g><mask></mask><g stroke-linecap="round"><g transform="translate(55.034846565074076 594.0869529171684) rotate(0 -11.76171875 -52.32421875)"><path d="M0.9 -0.32 C-4.01 -9.15, -28.98 -35.93, -28.43 -53.3 C-27.88 -70.68, -1.4 -95.87, 4.18 -104.58 M-0.09 -1.54 C-4.69 -10.16, -26.71 -35.06, -26.12 -52.01 C-25.53 -68.96, -1.87 -94.4, 3.44 -103.22" stroke="#1e1e1e" stroke-width="2" fill="none"></path></g><g transform="translate(55.034846565074076 594.0869529171684) rotate(0 -11.76171875 -52.32421875)"><path d="M-3.56 -79.22 C-1.35 -89.73, 1.09 -97.56, 3.44 -103.22 M-3.56 -79.22 C-0.88 -85.93, 0.65 -94.16, 3.44 -103.22" stroke="#1e1e1e" stroke-width="2" fill="none"></path></g><g transform="translate(55.034846565074076 594.0869529171684) rotate(0 -11.76171875 -52.32421875)"><path d="M-17.35 -89.33 C-9.9 -96.08, -2.18 -100.05, 3.44 -103.22 M-17.35 -89.33 C-10.38 -92.84, -4.63 -97.98, 3.44 -103.22" stroke="#1e1e1e" stroke-width="2" fill="none"></path></g></g><mask></mask><g stroke-linecap="round"><g transform="translate(57.991877815074076 493.71976541716845) rotate(0 -12.10546875 -52.53515625)"><path d="M0.14 0.97 C-4.24 -8.05, -26.08 -37.26, -25.74 -54.98 C-25.4 -72.7, -2.55 -96.99, 2.18 -105.36 M-1.24 0.43 C-5.79 -8.82, -26.85 -39.1, -26.4 -56.54 C-25.95 -73.98, -3.47 -96.26, 1.46 -104.2" stroke="#1e1e1e" stroke-width="2" fill="none"></path></g><g transform="translate(57.991877815074076 493.71976541716845) rotate(0 -12.10546875 -52.53515625)"><path d="M-6.13 -80.38 C-1.7 -87.75, 1.11 -96.84, 1.46 -104.2 M-6.13 -80.38 C-3.17 -86.26, -1.44 -93.49, 1.46 -104.2" stroke="#1e1e1e" stroke-width="2" fill="none"></path></g><g transform="translate(57.991877815074076 493.71976541716845) rotate(0 -12.10546875 -52.53515625)"><path d="M-19.67 -90.83 C-10.59 -94.58, -3.07 -100.03, 1.46 -104.2 M-19.67 -90.83 C-12.93 -93.81, -7.46 -98.16, 1.46 -104.2" stroke="#1e1e1e" stroke-width="2" fill="none"></path></g></g><mask></mask><g stroke-linecap="round"><g transform="translate(62.159846565074076 395.73539041716845) rotate(0 -14.779296875 -54.064453125)"><path d="M0.15 -0.88 C-4.68 -10.09, -27.43 -37.91, -28.53 -55.94 C-29.63 -73.98, -10.18 -100.43, -6.47 -109.11 M-1.23 1.27 C-6.18 -8.25, -28.46 -39.63, -28.94 -57.89 C-29.41 -76.15, -7.84 -100.14, -4.09 -108.3" stroke="#1e1e1e" stroke-width="2" fill="none"></path></g><g transform="translate(62.159846565074076 395.73539041716845) rotate(0 -14.779296875 -54.064453125)"><path d="M-9.63 -83.92 C-9.07 -90.5, -5.17 -102.12, -4.09 -108.3 M-9.63 -83.92 C-8.3 -88.93, -7.52 -95.29, -4.09 -108.3" stroke="#1e1e1e" stroke-width="2" fill="none"></path></g><g transform="translate(62.159846565074076 395.73539041716845) rotate(0 -14.779296875 -54.064453125)"><path d="M-24 -93.19 C-18.62 -96.63, -9.83 -105.11, -4.09 -108.3 M-24 -93.19 C-19.6 -96.18, -15.67 -100.52, -4.09 -108.3" stroke="#1e1e1e" stroke-width="2" fill="none"></path></g></g><mask></mask><g stroke-linecap="round"><g transform="translate(60.722346565074076 288.95023416716845) rotate(0 -14.806640625 -75.212890625)"><path d="M-1.14 0.45 C-5.98 -12.5, -28.82 -51.66, -28.92 -76.81 C-29.03 -101.97, -6.37 -138.12, -1.78 -150.48 M0.46 -0.35 C-4.48 -13.27, -28.98 -50.95, -29.51 -75.76 C-30.03 -100.56, -7.42 -136.79, -2.68 -149.18" stroke="#1e1e1e" stroke-width="2" fill="none"></path></g><g transform="translate(60.722346565074076 288.95023416716845) rotate(0 -14.806640625 -75.212890625)"><path d="M-5.14 -124.31 C-3.82 -130.78, -5.36 -139.99, -2.68 -149.18 M-5.14 -124.31 C-5.2 -132.52, -4.01 -138.63, -2.68 -149.18" stroke="#1e1e1e" stroke-width="2" fill="none"></path></g><g transform="translate(60.722346565074076 288.95023416716845) rotate(0 -14.806640625 -75.212890625)"><path d="M-20.55 -131.71 C-14.44 -135.76, -11.24 -142.7, -2.68 -149.18 M-20.55 -131.71 C-16.05 -137.67, -10.29 -141.58, -2.68 -149.18" stroke="#1e1e1e" stroke-width="2" fill="none"></path></g></g><mask></mask><g stroke-linecap="round"><g transform="translate(60.878596565074076 138.05960916716845) rotate(0 32.447265625 -55.1796875)"><path d="M1.2 -0.36 C-2.84 -10.3, -39.78 -41.29, -25.22 -59.69 C-10.66 -78.1, 69.5 -102.52, 88.58 -110.78 M0.37 -1.59 C-3.24 -11.35, -37.68 -40.26, -23.13 -58.27 C-8.59 -76.29, 68.83 -100.85, 87.63 -109.69" stroke="#1e1e1e" stroke-width="2" fill="none"></path></g><g transform="translate(60.878596565074076 138.05960916716845) rotate(0 32.447265625 -55.1796875)"><path d="M68.9 -93.13 C72.4 -98.92, 76.72 -101.13, 87.63 -109.69 M68.9 -93.13 C72.96 -98.18, 78.59 -101.64, 87.63 -109.69" stroke="#1e1e1e" stroke-width="2" fill="none"></path></g><g transform="translate(60.878596565074076 138.05960916716845) rotate(0 32.447265625 -55.1796875)"><path d="M62.64 -109.04 C67.5 -111.41, 73.19 -110.15, 87.63 -109.69 M62.64 -109.04 C68.39 -109.94, 75.69 -109.18, 87.63 -109.69" stroke="#1e1e1e" stroke-width="2" fill="none"></path></g></g><mask></mask><g stroke-linecap="round"><g transform="translate(149.62939097501123 245.50218324724352) rotate(0 0 0.020203029737842826)"><path d="M0.01 -0.21 C-0.02 -0.18, -0.01 0.1, 0.03 0.19 M-0.41 0.46 C-0.51 0.37, -0.33 -0.25, -0.24 -0.36" stroke="#fab005" stroke-width="2" fill="none"></path></g></g><mask></mask><g stroke-linecap="round" transform="translate(99.2253281196464 208.1737026549809) rotate(349.49460188942567 25.096960571558725 24.819919037429315)"><path d="M31.37 0.5 C36.47 1.73, 42.71 7.19, 45.69 11.64 C48.68 16.1, 49.94 22.12, 49.28 27.24 C48.63 32.35, 45.36 38.76, 41.74 42.33 C38.13 45.9, 32.84 48.25, 27.59 48.67 C22.34 49.08, 14.63 47.67, 10.25 44.82 C5.86 41.98, 2.58 36.77, 1.28 31.6 C-0.03 26.43, 0.28 18.57, 2.42 13.81 C4.57 9.05, 8.87 5.08, 14.16 3.06 C19.46 1.04, 30.33 1.48, 34.19 1.68 C38.04 1.88, 37.45 3.95, 37.31 4.23 M14.37 1.75 C18.83 -0.19, 27.82 0.67, 32.95 2.2 C38.07 3.74, 42.24 6.81, 45.12 10.97 C47.99 15.12, 50.77 21.76, 50.19 27.14 C49.61 32.52, 45.72 39.71, 41.65 43.24 C37.59 46.77, 31.19 48.15, 25.82 48.33 C20.44 48.5, 13.4 47.04, 9.42 44.3 C5.44 41.56, 3.31 37.01, 1.96 31.9 C0.62 26.79, -0.92 18.58, 1.36 13.62 C3.63 8.67, 13.41 4.23, 15.61 2.15 C17.81 0.07, 14.32 0.55, 14.56 1.16" stroke="none" stroke-width="0" fill="#bfc548"></path><path d="M34.49 0.82 C39.31 2.36, 44.56 7.38, 47.23 12.1 C49.91 16.81, 51.66 23.7, 50.54 29.12 C49.41 34.54, 44.63 41.34, 40.46 44.62 C36.3 47.89, 30.87 49, 25.56 48.77 C20.25 48.55, 12.91 46.67, 8.61 43.27 C4.31 39.87, 0.75 33.5, -0.25 28.38 C-1.25 23.26, -0.28 17.11, 2.61 12.53 C5.5 7.95, 11.2 2.54, 17.1 0.9 C22.99 -0.75, 33.86 1.73, 37.98 2.65 C42.1 3.58, 42.02 6.06, 41.81 6.47 M20.7 0.78 C25.96 -0.58, 33.32 0.4, 37.74 2.83 C42.16 5.27, 45.59 10.64, 47.22 15.39 C48.86 20.14, 49.03 26.17, 47.55 31.33 C46.07 36.49, 42.87 43.22, 38.35 46.36 C33.82 49.5, 25.69 50.83, 20.41 50.18 C15.13 49.53, 10.03 46.31, 6.68 42.46 C3.34 38.62, 0.66 32.77, 0.33 27.11 C-0.01 21.45, 1.64 13.09, 4.68 8.51 C7.72 3.92, 16.22 0.58, 18.58 -0.42 C20.94 -1.43, 18.66 1.98, 18.86 2.46" stroke="#bfc548" stroke-width="2" fill="none"></path></g><g stroke-linecap="round"><g transform="translate(108.76593459590185 246.76219610692556) rotate(349.49460188942567 20.2776532544421 -12.404202777748026)" fill-rule="evenodd"><path d="M0.21 1.49 C0.62 1.66, 1.13 3.79, 0.29 2.26 C-0.55 0.73, -3.78 -5.04, -4.84 -7.69 C-5.91 -10.33, -6.3 -12.55, -6.12 -13.6 C-5.93 -14.66, -4.96 -12.83, -3.71 -14.01 C-2.46 -15.18, -1.02 -19.18, 1.39 -20.67 C3.8 -22.15, 7.64 -22.47, 10.77 -22.93 C13.9 -23.39, 16.83 -23.76, 20.16 -23.42 C23.5 -23.08, 27.99 -21.21, 30.76 -20.9 C33.53 -20.59, 34.59 -20.66, 36.78 -21.55 C38.98 -22.45, 42.68 -24.71, 43.92 -26.28 C45.17 -27.85, 44.49 -32.72, 44.25 -30.98 C44.01 -29.23, 43.58 -19.25, 42.5 -15.83 C41.42 -12.4, 39.38 -12.76, 37.79 -10.43 C36.2 -8.09, 35.51 -4.13, 32.97 -1.83 C30.43 0.47, 26.63 2.67, 22.56 3.38 C18.48 4.09, 11.87 3.03, 8.51 2.44 C5.16 1.84, 3.91 -0.1, 2.44 -0.21 C0.97 -0.31, -0.27 1.85, -0.3 1.81" stroke="none" stroke-width="0" fill="#ffffff" fill-rule="evenodd"></path><path d="M0.85 0.94 C0.61 1.03, -0.41 2.07, -1.36 1.02 C-2.31 -0.04, -4.27 -3.37, -4.83 -5.39 C-5.4 -7.4, -5.2 -9.12, -4.77 -11.07 C-4.35 -13.02, -3.6 -15.75, -2.3 -17.08 C-1 -18.42, 1.05 -18.22, 3.02 -19.08 C4.98 -19.95, 6.94 -21.79, 9.47 -22.27 C12.01 -22.76, 14.73 -22.34, 18.21 -21.99 C21.7 -21.64, 27.03 -20.44, 30.36 -20.18 C33.7 -19.92, 36.34 -19.7, 38.22 -20.42 C40.11 -21.14, 40.73 -23.11, 41.65 -24.5 C42.56 -25.9, 43.47 -29.91, 43.71 -28.8 C43.96 -27.69, 43.85 -20.84, 43.12 -17.84 C42.39 -14.84, 41.15 -13.23, 39.34 -10.81 C37.53 -8.39, 35.25 -5.77, 32.25 -3.33 C29.25 -0.88, 25.11 2.61, 21.33 3.88 C17.54 5.16, 13.19 4.89, 9.52 4.34 C5.84 3.78, 1.07 1.39, -0.71 0.54 C-2.49 -0.32, -1.27 -0.79, -1.17 -0.8 M-0.16 0.39 C-0.06 0.1, 1.12 0.64, 0.75 -0.68 C0.37 -2, -1.47 -5.44, -2.4 -7.52 C-3.32 -9.6, -4.55 -11.56, -4.8 -13.16 C-5.04 -14.76, -4.86 -16.01, -3.86 -17.11 C-2.86 -18.21, -1.03 -18.63, 1.21 -19.74 C3.45 -20.86, 6.35 -23.28, 9.57 -23.78 C12.8 -24.27, 16.82 -23.61, 20.55 -22.72 C24.28 -21.82, 28.86 -18.77, 31.96 -18.42 C35.06 -18.06, 37.53 -19.73, 39.14 -20.59 C40.75 -21.45, 40.58 -22.16, 41.62 -23.57 C42.66 -24.98, 45.12 -29.85, 45.39 -29.04 C45.65 -28.23, 44.38 -21.67, 43.19 -18.71 C42.01 -15.75, 40.12 -13.73, 38.27 -11.27 C36.43 -8.81, 35.33 -6.72, 32.13 -3.97 C28.94 -1.22, 23.02 3.71, 19.11 5.22 C15.2 6.73, 11.67 5.8, 8.68 5.09 C5.7 4.37, 2.58 1.92, 1.21 0.91 C-0.15 -0.1, 0.64 -0.63, 0.48 -0.97" stroke="#bfc548" stroke-width="2" fill="none"></path></g></g><mask></mask><g stroke-linecap="round"><g transform="translate(112.8873447368436 244.72203135947257) rotate(349.49460188942567 13.247742160423229 -4.362091419390055)" fill-rule="evenodd"><path d="M-1.86 -1.63 C-1.38 -0.99, 0.44 1.97, 1.97 1.99 C3.49 2.01, 4.98 -0.64, 7.32 -1.49 C9.65 -2.34, 13.05 -2.17, 15.96 -3.1 C18.86 -4.02, 22.94 -6.05, 24.74 -7.04 C26.55 -8.02, 26.27 -8.67, 26.8 -9.01 C27.33 -9.36, 27.04 -8.55, 27.94 -9.09 C28.85 -9.62, 31.66 -11.42, 32.22 -12.21 C32.79 -13, 31.55 -14.36, 31.34 -13.83 C31.12 -13.3, 31.65 -10.12, 30.94 -9.02 C30.23 -7.92, 27.51 -7.9, 27.08 -7.22 C26.66 -6.54, 27.97 -5.19, 28.4 -4.94 C28.83 -4.69, 30.15 -5.63, 29.69 -5.71 C29.23 -5.78, 26.69 -6.14, 25.63 -5.38 C24.58 -4.63, 25.24 -2.66, 23.36 -1.18 C21.48 0.29, 16.39 2.88, 14.36 3.48 C12.32 4.09, 13.36 2.84, 11.17 2.47 C8.97 2.1, 3.11 1.43, 1.19 1.24 C-0.74 1.05, 0.88 1.6, -0.38 1.33 C-1.65 1.07, -6.7 -0.46, -6.42 -0.36 C-6.13 -0.25, 0.5 1.93, 1.34 1.97" stroke="none" stroke-width="0" fill="#82c91e" fill-rule="evenodd"></path><path d="M-1.15 0.82 C-0.85 0.68, 1.22 0.2, 2.68 0.11 C4.14 0.02, 5.45 0.78, 7.59 0.27 C9.73 -0.24, 12.76 -2.2, 15.53 -2.93 C18.3 -3.67, 22.44 -3.38, 24.2 -4.16 C25.97 -4.94, 25.38 -6.77, 26.11 -7.61 C26.83 -8.46, 27.91 -8.61, 28.53 -9.23 C29.16 -9.85, 29.26 -10.95, 29.87 -11.32 C30.48 -11.69, 31.96 -11.49, 32.18 -11.45 C32.4 -11.4, 31.86 -11.85, 31.2 -11.06 C30.54 -10.27, 28.73 -7.52, 28.23 -6.73 C27.74 -5.95, 28.43 -6.49, 28.22 -6.35 C28.01 -6.21, 27.52 -6.34, 26.98 -5.89 C26.44 -5.44, 25.85 -4.58, 24.99 -3.65 C24.14 -2.72, 23.45 -1.18, 21.86 -0.29 C20.27 0.6, 17.76 1.14, 15.46 1.67 C13.15 2.2, 10.3 2.76, 8.03 2.89 C5.76 3.02, 3.62 2.37, 1.82 2.47 C0.02 2.57, -1.38 3.79, -2.76 3.51 C-4.15 3.24, -6.96 1.28, -6.49 0.82 C-6.01 0.35, -1.02 0.7, 0.1 0.73 M0.44 0.2 C1.05 -0.39, 3.92 -1.51, 4.94 -1.81 C5.96 -2.11, 4.76 -1.53, 6.55 -1.6 C8.34 -1.67, 12.91 -1.95, 15.68 -2.25 C18.45 -2.55, 21.29 -2.3, 23.17 -3.4 C25.05 -4.49, 26.02 -8.16, 26.97 -8.81 C27.92 -9.46, 28.02 -7.35, 28.88 -7.3 C29.73 -7.25, 31.82 -7.65, 32.11 -8.52 C32.41 -9.4, 30.73 -12.04, 30.65 -12.55 C30.57 -13.05, 32.06 -12.72, 31.62 -11.56 C31.17 -10.4, 28.2 -6.36, 27.98 -5.56 C27.76 -4.77, 30.5 -6.57, 30.31 -6.81 C30.12 -7.05, 27.31 -7.46, 26.84 -6.98 C26.38 -6.5, 28.21 -4.97, 27.51 -3.93 C26.8 -2.89, 24.98 -1.9, 22.6 -0.76 C20.22 0.38, 15.36 2.19, 13.25 2.92 C11.15 3.66, 11.59 3.73, 9.98 3.65 C8.37 3.56, 5.95 2.35, 3.58 2.42 C1.21 2.48, -2.54 4.52, -4.23 4.01 C-5.92 3.5, -7.12 0.03, -6.57 -0.65 C-6.02 -1.33, -2.14 -0.21, -0.93 -0.07" stroke="#bfc548" stroke-width="2" fill="none"></path></g></g><mask></mask><g stroke-linecap="round" transform="translate(105.9547106724649 248.18124938808472) rotate(349.49460188942567 1.882790642782993 1.8167373903107773)"><path d="M1.84 -0.11 C2.31 -0.14, 3.19 -0.04, 3.51 0.26 C3.83 0.56, 3.73 1.2, 3.74 1.68 C3.75 2.17, 3.83 2.85, 3.58 3.17 C3.34 3.48, 2.75 3.46, 2.28 3.55 C1.82 3.65, 1.16 3.93, 0.79 3.76 C0.42 3.58, 0.14 2.86, 0.06 2.51 C-0.02 2.15, 0.2 2.02, 0.32 1.62 C0.44 1.21, 0.53 0.28, 0.78 0.06 C1.04 -0.16, 1.65 0.34, 1.84 0.32 C2.03 0.29, 1.88 -0.09, 1.91 -0.08 M2.18 -0.11 C2.57 -0.06, 2.8 0.52, 3.01 0.76 C3.22 1, 3.44 0.99, 3.46 1.32 C3.47 1.66, 3.22 2.31, 3.1 2.75 C2.97 3.19, 3.12 3.89, 2.7 3.99 C2.28 4.09, 0.99 3.6, 0.6 3.35 C0.21 3.11, 0.47 2.95, 0.35 2.52 C0.23 2.1, -0.27 1.09, -0.12 0.8 C0.02 0.51, 0.88 0.84, 1.22 0.76 C1.57 0.68, 1.8 0.47, 1.94 0.3 C2.08 0.12, 2.07 -0.26, 2.04 -0.29" stroke="none" stroke-width="0" fill="#ffffff"></path><path d="M1.53 0.24 C1.9 0.15, 2.84 -0.11, 3.19 0.06 C3.54 0.22, 3.59 0.82, 3.62 1.21 C3.66 1.61, 3.58 2.01, 3.37 2.4 C3.17 2.79, 2.69 3.39, 2.38 3.55 C2.07 3.72, 1.87 3.55, 1.52 3.38 C1.17 3.21, 0.53 2.84, 0.3 2.53 C0.06 2.23, 0.06 1.92, 0.11 1.55 C0.15 1.18, 0.3 0.62, 0.55 0.32 C0.81 0.02, 1.43 -0.22, 1.63 -0.23 C1.84 -0.24, 1.73 0.15, 1.76 0.26 M1.39 -0.33 C1.83 -0.33, 2.71 0.27, 3.03 0.62 C3.34 0.96, 3.2 1.35, 3.28 1.75 C3.37 2.16, 3.66 2.67, 3.56 3.03 C3.45 3.4, 3.04 3.93, 2.63 3.94 C2.21 3.96, 1.52 3.4, 1.06 3.14 C0.6 2.88, 0.1 2.59, -0.13 2.39 C-0.35 2.2, -0.4 2.32, -0.29 1.97 C-0.19 1.61, 0.14 0.61, 0.51 0.25 C0.88 -0.11, 1.66 -0.09, 1.94 -0.2 C2.21 -0.3, 2.18 -0.41, 2.16 -0.4" stroke="#bfc548" stroke-width="2" fill="none"></path></g></svg>